<svg id="Layer_3" enable-background="new 0 0 64 64" height="512" viewBox="0 0 64 64" width="512" xmlns="http://www.w3.org/2000/svg"><path d="m2 10h60v32h-60z" fill="#ffeaa7"/><path d="m2 2h60v8h-60z" fill="#b4dd7f"/><path d="m16 26-7.07 7.07c-1.81-1.81-2.93-4.31-2.93-7.07s1.12-5.26 2.93-7.07z" fill="#fcd770"/><path d="m22 26v8.01c-1.68 1.24-3.75 1.99-6 1.99-2.76 0-5.26-1.12-7.07-2.93l7.07-7.07z" fill="#b4dd7f"/><path d="m22 18v8h-6l-7.07-7.07c1.81-1.81 4.31-2.93 7.07-2.93 2.25 0 4.33.75 6 2z" fill="#ff826e"/><path d="m54 62h-36c-2.21 0-4-1.79-4-4v-4h8 14 14v4c0 1.1.45 2.1 1.17 2.83.73.72 1.73 1.17 2.83 1.17z" fill="#fcd770"/><path d="m22 14v40h28v4c0 1.1.45 2.1 1.17 2.83.73.72 1.73 1.17 2.83 1.17 2.21 0 4-1.79 4-4v-44z" fill="#e6e9ed"/><path d="m54 40v18h-4v-4h-14v-14z" fill="#b4dd7f"/><path d="m26 22h28v14h-28z" fill="#ffeaa7"/><path d="m54 18v4h-6-6v-4z" fill="#b4dd7f"/><path d="m34 18h-8v4h8 8v-4z" fill="#ff826e"/><path d="m63 1h-62v42h20v10h-8v5c0 2.757 2.243 5 5 5h36c2.757 0 5-2.243 5-5v-15h4zm-2 2v6h-58v-6zm-40 22h-4.586l-6.025-6.025c1.54-1.233 3.489-1.975 5.611-1.975 1.802 0 3.519.529 5 1.523zm-12.025-4.611 5.611 5.611-5.611 5.611c-1.233-1.54-1.975-3.489-1.975-5.611s.742-4.071 1.975-5.611zm7.439 6.611h4.586v6.477c-1.481.994-3.198 1.523-5 1.523-2.122 0-4.071-.742-5.611-1.975zm1.586 34c-1.654 0-3-1.346-3-3v-3h34v3c0 1.125.374 2.164 1.002 3zm19-8v-12h16v16h-2v-4zm20 5c0 1.654-1.346 3-3 3-1.302 0-2.402-.839-2.816-2h3.816v-20h-20v14h-12v-38h34zm2-17v-28h-38v3.202c-1.537-.788-3.235-1.202-5-1.202-6.065 0-11 4.935-11 11s4.935 11 11 11c1.765 0 3.463-.414 5-1.202v5.202h-18v-30h58v30z"/><path d="m5 5h2v2h-2z"/><path d="m9 5h2v2h-2z"/><path d="m13 5h2v2h-2z"/><path d="m55 17h-30v20h30zm-2 4h-10v-2h10zm-12 2v12h-6v-12zm-6-2v-2h6v2zm8 2h4v12h-4zm-10-4v2h-6v-2zm-6 4h6v12h-6zm22 12v-12h4v12z"/><path d="m25 39h8v2h-8z"/><path d="m25 43h8v2h-8z"/><path d="m25 47h8v2h-8z"/></svg>