<?xml version="1.0" encoding="utf-8"?>
<!-- Generator: Adobe Illustrator 23.0.3, SVG Export Plug-In . SVG Version: 6.00 Build 0)  -->
<svg version="1.1" id="Layer_1" xmlns="http://www.w3.org/2000/svg" xmlns:xlink="http://www.w3.org/1999/xlink" x="0px" y="0px"
	 viewBox="0 0 512 512" style="enable-background:new 0 0 512 512;" xml:space="preserve">
<style type="text/css">
	.st0{fill:#5E5F62;}
	.st1{fill:#E6E7E8;}
	.st2{fill:#E64C3C;}
	.st3{fill:#4482C3;}
	.st4{fill:#F09372;}
	.st5{fill:#2C2F38;}
	.st6{fill:#D1D4D1;}
	.st7{fill:#C03A2B;}
	.st8{fill:#FDD7AD;}
	.st9{fill:#AF8066;}
	.st10{fill:#A5A5A4;}
	.st11{fill:#4FBA6F;}
</style>
<path class="st0" d="M211.9,326.6c-4.9,0-8.8-4-8.8-8.8v-35.3c0-4.9,4-8.8,8.8-8.8s8.8,3.9,8.8,8.8v35.3
	C220.7,322.7,216.7,326.6,211.9,326.6z"/>
<path class="st1" d="M268.6,282.5H44.1c-9.7,0-17.6-7.9-17.7-17.7V35.3h370.8V166L268.6,282.5z"/>
<path class="st2" d="M264.8,232v-99.6c0-4.9-4-8.8-8.8-8.8h-17.7c-4.9,0-8.8,4-8.8,8.8v105.9c0,4.9,4,8.8,8.8,8.8h13.6
	c3,0,5.8-1.5,7.4-4.1l4.1-6.4C264.4,235.3,264.8,233.7,264.8,232z"/>
<path class="st3" d="M335.4,152.8V97.1c0-4.9-4-8.8-8.8-8.8H309c-4.9,0-8.8,3.9-8.8,8.8v62.5c0,2.9,1.4,5.6,3.8,7.3s5.5,2,8.2,1
	l17.7-6.8C333.2,159.8,335.4,156.5,335.4,152.8z"/>
<path class="st4" d="M401.8,342.4v2.8c0,25,18.9,45.9,43.7,48.5l22.8,4.2c24.8,2.6,43.7,23.5,43.7,48.5v47.3c0,4.9-1.9,9.5-5.3,12.9
	c-3.4,3.4-8.1,5.3-12.9,5.3H212.5c-4.9,0-9.5-1.9-12.9-5.3c-3.4-3.4-5.3-8.1-5.3-12.9v-47.3c0-25,18.9-45.9,43.7-48.5l22.8-4.2
	c24.8-2.6,43.7-23.5,43.7-48.5v-2.8H401.8z"/>
<path class="st5" d="M512,446.4v47.3c0,4.9-1.9,9.5-5.3,12.9c-3.4,3.4-8.1,5.3-12.9,5.3H361.9v-44.1c9.7,0,17.6-7.9,17.7-17.7v-8.8
	c0-9.6-7.8-17.5-17.4-17.7l9.2-15.2l17,41.7l62.7-55.4l17.2,3.2C493.1,400.5,512,421.4,512,446.4z"/>
<path class="st5" d="M361.9,467.9V512H212.5c-4.9,0-9.5-1.9-12.9-5.3c-3.4-3.4-5.3-8.1-5.3-12.9v-47.3c0-25,18.9-45.9,43.7-48.5
	l17.2-3.2l62.7,55.4l17-41.7l9.2,15.2c-9.6,0.2-17.4,8-17.4,17.7v8.8c0,9.7,7.9,17.6,17.7,17.7H361.9z"/>
<path class="st6" d="M335.4,406.1l17.7,35.3l17.7-35.3l17.7,44.1V512h-70.6v-61.8L335.4,406.1z"/>
<path class="st2" d="M344.3,423.7h17.7c9.8,0,17.7,7.9,17.7,17.7v8.8c0,9.8-7.9,17.7-17.7,17.7h-17.7c-9.8,0-17.7-7.9-17.7-17.7
	v-8.8C326.6,431.6,334.5,423.7,344.3,423.7z"/>
<path class="st7" d="M383.6,512l-16.8-44.8h-27.4L322.6,512H383.6z"/>
<path class="st8" d="M282.5,292.2c0,39,31.6,70.6,70.6,70.7c39,0,70.6-31.6,70.7-70.6c14.6-6.5,24.6-20.2,26.5-36
	c0-24.5-14.8-26.6-26.5-20.1v-24.3c0-29.3-23.7-53-53-53h-35.3c-29.3,0-53,23.7-53,53v24.2c-11.8-6.4-26.5-4.1-26.5,19.9
	C258,271.8,268,285.5,282.5,292.2z"/>
<path class="st9" d="M423.7,211.9v23.6c-4.8-4.3-11.2-6.5-17.7-5.9c-33.2,0-35.3-35.3-35.3-35.3s-37.4,35.3-70.6,35.3
	c-6.4-0.5-12.8,1.6-17.7,5.9v-23.6c0-29.3,23.7-53,53-53h35.3C400,158.9,423.7,182.6,423.7,211.9z"/>
<path class="st1" d="M451.1,394.8l-62.7,55.4l-17.7-44.1l45.9-25.9c7.8,7.7,18,12.4,28.9,13.5L451.1,394.8z"/>
<path class="st1" d="M335.4,406.1l-17.7,44.1l-62.7-55.4l5.6-1.1c10.9-1.1,21.1-5.9,28.9-13.5L335.4,406.1z"/>
<path class="st9" d="M17.7,0h388.4c9.8,0,17.7,7.9,17.7,17.7s-7.9,17.7-17.7,17.7H17.7C7.9,35.3,0,27.4,0,17.7S7.9,0,17.7,0z"/>
<path class="st10" d="M238.3,344.3c0,14.6-11.9,26.5-26.5,26.5c-14.6,0-26.5-11.9-26.5-26.5c0-14.6,11.9-26.5,26.5-26.5
	C226.5,317.8,238.3,329.6,238.3,344.3z"/>
<path class="st2" d="M97.1,176.6h17.7c4.9,0,8.8,4,8.8,8.8v53c0,4.9-4,8.8-8.8,8.8H97.1c-4.9,0-8.8-4-8.8-8.8v-53
	C88.3,180.5,92.2,176.6,97.1,176.6z"/>
<path class="st3" d="M167.7,158.9h17.7c4.9,0,8.8,3.9,8.8,8.8v70.6c0,4.9-4,8.8-8.8,8.8h-17.7c-4.9,0-8.8-4-8.8-8.8v-70.6
	C158.9,162.8,162.8,158.9,167.7,158.9z"/>
<path class="st11" d="M97.1,141.2c-3.1,0-5.9-1.6-7.5-4.2c-1.6-2.6-1.8-5.9-0.4-8.6l26.5-53c1.3-2.5,3.7-4.3,6.5-4.8
	c2.8-0.5,5.7,0.5,7.7,2.5l36.5,36.5l29.3-44c2.5-3.7,7.3-5,11.3-3l31.4,15.7l31.4-15.7c2.8-1.4,6.2-1.2,8.8,0.5
	c2.6,1.7,4.1,4.8,3.9,7.9c-0.2,3.2-2,6-4.9,7.4l-35.3,17.7c-2.5,1.2-5.4,1.2-7.9,0L206.1,82l-31,46.5c-1.5,2.2-3.8,3.6-6.5,3.9
	c-2.6,0.3-5.2-0.7-7.1-2.5L126,94.3l-21,42C103.5,139.4,100.5,141.3,97.1,141.2z"/>
</svg>
