<?xml version="1.0" encoding="utf-8"?>
<!-- Generator: Adobe Illustrator 23.0.3, SVG Export Plug-In . SVG Version: 6.00 Build 0)  -->
<svg version="1.1" id="Layer_1" xmlns="http://www.w3.org/2000/svg" xmlns:xlink="http://www.w3.org/1999/xlink" x="0px" y="0px"
	 viewBox="0 0 512 512" style="enable-background:new 0 0 512 512;" xml:space="preserve">
<style type="text/css">
	.st0{fill:#656D78;}
	.st1{fill:#48CFAD;}
	.st2{fill:#5D9CEC;}
	.st3{fill:#AC92EC;}
	.st4{fill:#434A54;}
	.st5{fill:#37BC9B;}
	.st6{fill:#EAC6BB;}
</style>
<path class="st0" d="M120,184c0,8.8,7.1,16,16,16c-13.9,0-25.8,8.9-30.2,21.3C95,212.5,88,199,88,184c0-26.6,21.5-48,48-48
	c26.5,0,48,21.4,48,48c0,15-6.9,28.4-17.8,37.2l-0.2-0.2c-4.5-12.2-16.2-21-30.1-21c8.8,0,16-7.2,16-16c0-8.9-7.2-16-16-16
	C127.1,168,120,175.1,120,184z"/>
<path class="st1" d="M136,200c13.8,0,25.6,8.7,30.1,21l0.2,0.2C158,227.9,147.4,232,136,232c-11.4,0-21.9-4-30.2-10.7
	C110.2,208.9,122.1,200,136,200z"/>
<path class="st2" d="M432,336h48v136h-48V336z"/>
<path class="st3" d="M368,232h48v240h-48V232z"/>
<path class="st2" d="M304,312h48v160h-48V312z"/>
<path class="st3" d="M240,152h48v320h-48V152z"/>
<path class="st2" d="M176,336h48v136h-48V336z"/>
<path class="st3" d="M112,256h48v216h-48V256z"/>
<path class="st2" d="M48,336h48v136H48V336z"/>
<path class="st1" d="M392,176c13.8,0,25.6,8.7,30.1,21l0.2,0.2C414,203.9,403.4,208,392,208c-11.4,0-21.9-4-30.2-10.7
	C366.2,184.9,378.1,176,392,176z"/>
<path class="st0" d="M392,176c-13.9,0-25.8,8.9-30.2,21.3C351,188.5,344,175,344,160c0-26.6,21.5-48,48-48c26.5,0,48,21.4,48,48
	c0,15-6.9,28.4-17.8,37.2l-0.2-0.2C417.6,184.7,405.8,176,392,176c8.8,0,16-7.2,16-16c0-8.9-7.2-16-16-16c-8.9,0-16,7.1-16,16
	C376,168.8,383.1,176,392,176z"/>
<path class="st0" d="M248,80c0,8.8,7.1,16,16,16c-13.9,0-25.8,8.9-30.2,21.3C223,108.5,216,95,216,80c0-26.6,21.5-48,48-48
	c26.5,0,48,21.4,48,48c0,15-6.9,28.4-17.8,37.2l-0.2-0.2c-4.5-12.2-16.2-21-30.1-21c8.8,0,16-7.2,16-16c0-8.9-7.2-16-16-16
	C255.1,64,248,71.1,248,80z"/>
<path class="st1" d="M264,96c13.8,0,25.6,8.7,30.1,21l0.2,0.2C286,123.9,275.4,128,264,128c-11.4,0-21.9-4-30.2-10.7
	C238.2,104.9,250.1,96,264,96z"/>
<path class="st4" d="M264,32c-2.7,0-5.4,0.3-8,0.7c22.7,3.8,40,23.5,40,47.3c0,15-6.9,28.4-17.8,37.2c-6.3,5.1-13.9,8.7-22.3,10.1
	c2.6,0.4,5.3,0.7,8.1,0.7c11.4,0,22-4.1,30.2-10.8C305.1,108.4,312,95,312,80C312,53.4,290.5,32,264,32z"/>
<path class="st5" d="M287.8,106.7c-2.7,3.9-5.9,7.5-9.6,10.5c-6.3,5.1-13.9,8.7-22.3,10.1c2.6,0.4,5.3,0.7,8.1,0.7
	c11.4,0,22-4.1,30.2-10.8l-0.2-0.2C292.7,113.1,290.5,109.7,287.8,106.7z"/>
<path class="st4" d="M392,112c-2.7,0-5.4,0.3-8,0.7c22.7,3.8,40,23.5,40,47.3c0,15-6.9,28.4-17.8,37.2c-6.3,5.1-13.9,8.7-22.3,10.1
	c2.6,0.4,5.3,0.7,8.1,0.7c11.4,0,22-4.1,30.2-10.8C433.1,188.4,440,175,440,160C440,133.4,418.5,112,392,112z"/>
<path class="st5" d="M415.8,186.7c-2.7,3.9-5.9,7.5-9.6,10.5c-6.3,5.1-13.9,8.7-22.3,10.1c2.6,0.4,5.3,0.7,8.1,0.7
	c11.4,0,22-4.1,30.2-10.8l-0.2-0.2C420.7,193.1,418.5,189.7,415.8,186.7z"/>
<path class="st4" d="M136,136c-2.7,0-5.4,0.3-8,0.7c22.7,3.8,40,23.5,40,47.3c0,15-6.9,28.4-17.8,37.2c-6.3,5.1-13.9,8.7-22.3,10.1
	c2.6,0.4,5.3,0.7,8.1,0.7c11.4,0,22-4.1,30.2-10.8C177.1,212.4,184,199,184,184C184,157.4,162.5,136,136,136z"/>
<path class="st5" d="M159.8,210.7c-2.7,3.9-5.9,7.5-9.6,10.5c-6.3,5.1-13.9,8.7-22.3,10.1c2.6,0.4,5.3,0.7,8.1,0.7
	c11.4,0,22-4.1,30.2-10.8l-0.2-0.2C164.7,217.1,162.5,213.7,159.8,210.7z"/>
<path class="st0" d="M8,480c-4.4,0-8-3.6-8-8V40c0-4.4,3.6-8,8-8s8,3.6,8,8v432C16,476.4,12.4,480,8,480z"/>
<path class="st0" d="M504,480H8c-4.4,0-8-3.6-8-8s3.6-8,8-8h496c4.4,0,8,3.6,8,8S508.4,480,504,480z"/>
<g>
	<path class="st6" d="M156,184c0,11-9,20-20,20c-11.1,0-20-9-20-20c0-11.1,8.9-20,20-20C147,164,156,172.9,156,184z"/>
	<path class="st6" d="M412,160c0,11-9,20-20,20c-11.1,0-20-9-20-20c0-11.1,8.9-20,20-20C403,140,412,148.9,412,160z"/>
	<path class="st6" d="M284,80c0,11-9,20-20,20c-11.1,0-20-9-20-20c0-11.1,8.9-20,20-20C275,60,284,68.9,284,80z"/>
</g>
</svg>
