<svg version="1.1" id="Layer_1" xmlns="http://www.w3.org/2000/svg" width="40" width="40" xmlns:xlink="http://www.w3.org/1999/xlink" x="0px" y="0px"
	 viewBox="0 0 60 60" style="enable-background:new 0 0 60 60;" xml:space="preserve">
<style type="text/css">
	.st0{fill:#E7E9ED;}
	.st1{fill:#F48270;}
	.st2{fill:#51C1E9;}
	.st3{fill:#CDD2D9;}
	.st4{fill:#FDE9A7;}
	.st5{fill:#F0D0B4;}
	.st6{fill:#D3A16D;}
	.st7{fill:#B27A47;}
	.st8{fill:#B6D881;}
	.st9{fill:#A1CF69;}
	.st10{fill:#FCD770;}
	.st11{fill:#010101;}
</style>
<title>Manage Clients</title>
<g>
	<g>
		<g>
			<path class="st0" d="M8.5,28.1H3.9v-2.7c0-2.8,1.1-5.3,3-7.1c1.2-1.2,2.7-2.1,4.4-2.6v0.5c0,1.5,1.2,2.7,2.7,2.7
				c0.8,0,1.4-0.3,1.9-0.8c0.5-0.5,0.8-1.2,0.8-1.9v-0.5v0c1.7,0.5,3.2,1.4,4.4,2.6c-2.1,2-3.5,4.9-3.5,8v1.8H8.5z"/>
		</g>
		<g>
			<path class="st0" d="M43.3,22.6l1.8,1.8l1.8-1.8l-0.7-7.3c2.3,0.2,4.4,1.3,6,2.9c1.8,1.8,3,4.3,3,7.1v2.7h-4.6h-9.2v-1.8
				c0-3.2-1.3-6-3.5-8c1.6-1.6,3.7-2.6,6-2.9L43.3,22.6z"/>
		</g>
		<g>
			<path class="st1" d="M46.3,15.4l0.7,7.3l-1.8,1.8l-1.8-1.8l0.7-7.3c0.4,0,0.7-0.1,1.1-0.1C45.5,15.3,45.9,15.3,46.3,15.4z"/>
		</g>
		<g>
			<path class="st2" d="M22.2,28.1h-4.6v-1.8c0-3.2,1.3-6,3.5-8c1.1-1,2.3-1.8,3.7-2.3l2.5,8l1.3,4.2H22.2z"/>
		</g>
		<g>
			<path class="st2" d="M36.9,28.1h-6.4l1.3-4.2l2.5-8c1.4,0.5,2.7,1.3,3.7,2.3c2.1,2,3.5,4.9,3.5,8v1.8L36.9,28.1z"/>
		</g>
		<g>
			<path class="st3" d="M28.4,15.3L27.3,24l-2.5-8C26,15.6,27.2,15.3,28.4,15.3L28.4,15.3z"/>
		</g>
		<g>
			<path class="st3" d="M34.3,16l-2.5,8l-1.1-8.6C32,15.3,33.2,15.6,34.3,16z"/>
		</g>
		<g>
			<path class="st4" d="M30.7,15.3l1.1,8.6l-1.3,4.2h-1.8L27.3,24l1.1-8.6c0.1,0,0.2,0,0.2,0h0.9h0.9C30.6,15.3,30.6,15.3,30.7,15.3
				z"/>
		</g>
		<g>
			<path class="st5" d="M16.7,15.7v0.5c0,0.8-0.3,1.4-0.8,1.9S14.8,19,14,19c-1.5,0-2.7-1.2-2.7-2.7v-0.5c0.9-0.3,1.8-0.4,2.7-0.4
				C15,15.3,15.9,15.4,16.7,15.7L16.7,15.7z"/>
		</g>
		<g>
			<circle class="st5" cx="14" cy="9.8" r="5.5"/>
		</g>
		<g>
			<circle class="st5" cx="45.2" cy="9.8" r="5.5"/>
		</g>
		<g>
			<circle class="st5" cx="29.6" cy="8.9" r="6.4"/>
		</g>
		<g>
			<path class="st6" d="M55.2,31.8v25.7H3.9V31.8H55.2z"/>
		</g>
		<g>
			<path class="st7" d="M30.5,28.1h6.4h4.6h9.2h4.6h1.8v3.7h-1.8H3.9H2.1v-3.7h1.8h4.6h9.2h4.6h6.4H30.5z"/>
		</g>
		<g>
			<path class="st8" d="M14,35.5h15.6c-5.1,0-9.2,4.1-9.2,9.2s4.1,9.2,9.2,9.2H14c0-3.5-2.9-6.4-6.4-6.4v-5.5
				C11.1,41.9,14,39,14,35.5z"/>
		</g>
		<g>
			<path class="st8" d="M51.6,41.9v5.5c-3.5,0-6.4,2.9-6.4,6.4H29.6c5.1,0,9.2-4.1,9.2-9.2s-4.1-9.2-9.2-9.2h15.6
				C45.2,39,48,41.9,51.6,41.9z"/>
		</g>
		<g>
			<path class="st9" d="M14,53.8H7.6v-6.4C11.1,47.4,14,50.3,14,53.8z"/>
		</g>
		<g>
			<path class="st9" d="M7.6,35.5H14c0,3.5-2.9,6.4-6.4,6.4V35.5z"/>
		</g>
		<g>
			<path class="st9" d="M51.6,35.5v6.4c-3.5,0-6.4-2.9-6.4-6.4H51.6z"/>
		</g>
		<g>
			<path class="st9" d="M51.6,47.4v6.4h-6.4C45.2,50.3,48,47.4,51.6,47.4z"/>
		</g>
		<g>
			<circle class="st10" cx="29.6" cy="44.6" r="9.2"/>
		</g>
	</g>
	<g>
		<path class="st11" d="M30.5,41.9c0.5,0,0.9,0.4,0.9,0.9h1.8c0-1.5-1.2-2.7-2.7-2.7v-1.8h-1.8v1.8h-2.7v2.7c0,1.5,1.2,2.7,2.7,2.7
			h1.8c0.5,0,0.9,0.4,0.9,0.9v0.9h-2.7c-0.5,0-0.9-0.4-0.9-0.9h-1.8c0,1.5,1.2,2.7,2.7,2.7v1.8h1.8v-1.8h2.7v-2.7
			c0-1.5-1.2-2.7-2.7-2.7h-1.8c-0.5,0-0.9-0.4-0.9-0.9v-0.9H30.5z"/>
		<path class="st11" d="M52.5,54.7V34.6H6.7v20.2H52.5z M8.5,48.4c2.3,0.4,4.1,2.2,4.5,4.5H8.5V48.4z M46.2,52.9
			c0.4-2.3,2.2-4.1,4.5-4.5v4.5H46.2z M50.6,40.9c-2.3-0.4-4.1-2.2-4.5-4.5h4.5V40.9z M44.3,36.4c0.4,3.3,3,5.9,6.4,6.4v3.8
			c-3.3,0.4-5.9,3-6.4,6.4h-8.9c2.6-1.8,4.3-4.8,4.3-8.2c0-3.4-1.7-6.4-4.3-8.2H44.3z M29.6,52.9c-4.5,0-8.2-3.7-8.2-8.2
			s3.7-8.2,8.2-8.2s8.2,3.7,8.2,8.2S34.1,52.9,29.6,52.9z M19.5,44.6c0,3.4,1.7,6.4,4.3,8.2h-8.9c-0.4-3.3-3-5.9-6.4-6.4v-3.8
			c3.3-0.4,5.9-3,6.4-6.4h8.9C21.2,38.2,19.5,41.2,19.5,44.6z M13,36.4c-0.4,2.3-2.2,4.1-4.5,4.5v-4.5H13z"/>
		<path class="st11" d="M58,27.2h-1.8v-1.8c0-4.8-3.1-8.8-7.3-10.3c1.6-1.2,2.7-3.1,2.7-5.2c0-3.5-2.9-6.4-6.4-6.4s-6.4,2.9-6.4,6.4
			c0,2.2,1.1,4.1,2.7,5.2c-1.3,0.4-2.4,1.1-3.5,2c-1.2-1-2.6-1.7-4.2-2.2c1.9-1.3,3.1-3.5,3.1-6c0-4-3.3-7.3-7.3-7.3
			s-7.3,3.3-7.3,7.3c0,2.5,1.2,4.6,3.1,6c-1.5,0.4-3,1.2-4.2,2.2c-1-0.9-2.2-1.6-3.5-2c1.6-1.2,2.7-3.1,2.7-5.2
			c0-3.5-2.9-6.4-6.4-6.4S7.6,6.3,7.6,9.8c0,2.2,1.1,4.1,2.7,5.2C6.1,16.6,3,20.6,3,25.4v1.8H1.2v5.5H3v25.7h53.1V32.7H58V27.2z
			 M54.3,25.4v1.8h-2.7v-5.5h-1.8v5.5h-7.3v-0.9c0-3.1-1.2-5.9-3.1-8c1.1-0.9,2.3-1.5,3.7-1.8L42.4,23l2.8,2.8l2.8-2.8l-0.6-6.5
			C51.3,17.5,54.3,21.1,54.3,25.4L54.3,25.4z M36,21.7v5.5h-4.3l3.1-10c3.4,1.6,5.7,5.1,5.7,9.1v0.9h-2.7v-5.5H36z M21.3,21.7v5.5
			h-2.7v-0.9c0-4,2.3-7.4,5.7-9.1l3.1,10h-4.3v-5.5H21.3z M26,16.6c0.4-0.1,0.9-0.2,1.4-0.3L27,19.7L26,16.6z M29.3,27.2l-1-3.4
			l1-7.6h0.7l1,7.6l-1,3.4L29.3,27.2z M32.2,19.7l-0.4-3.3c0.5,0.1,0.9,0.2,1.4,0.3L32.2,19.7z M45.2,16.2c0.1,0,0.2,0,0.3,0
			l0.6,6.1l-0.9,0.9l-0.9-0.9l0.6-6.1C45,16.2,45.1,16.2,45.2,16.2z M40.6,9.8c0-2.5,2.1-4.6,4.6-4.6s4.6,2.1,4.6,4.6
			s-2.1,4.6-4.6,4.6S40.6,12.3,40.6,9.8z M24.1,8.9c0-3,2.5-5.5,5.5-5.5c3,0,5.5,2.5,5.5,5.5s-2.5,5.5-5.5,5.5
			C26.5,14.4,24.1,11.9,24.1,8.9z M14,16.2c0.6,0,1.2,0.1,1.8,0.2c-0.1,0.9-0.9,1.7-1.8,1.7c-0.9,0-1.7-0.7-1.8-1.7
			C12.8,16.3,13.4,16.2,14,16.2z M9.4,9.8c0-2.5,2.1-4.6,4.6-4.6s4.6,2.1,4.6,4.6s-2.1,4.6-4.6,4.6S9.4,12.3,9.4,9.8z M4.8,25.4
			c0-3.8,2.3-7,5.6-8.4c0.3,1.7,1.8,2.9,3.6,2.9c1.8,0,3.3-1.3,3.6-2.9c0.8,0.3,1.6,0.8,2.2,1.4c-1.9,2.1-3.1,4.9-3.1,8v0.9H9.4
			v-5.5H7.6v5.5H4.8V25.4z M54.3,56.5H4.8V32.7h49.5V56.5z M56.1,30.9H3v-1.8h53.1V30.9z"/>
	</g>
</g>
</svg>
