
<svg version="1.1" id="Layer_1" xmlns="http://www.w3.org/2000/svg" height="40" width="40" xmlns:xlink="http://www.w3.org/1999/xlink" x="0px" y="0px"
	 viewBox="0 0 60 60" style="enable-background:new 0 0 60 60;" xml:space="preserve">
<style type="text/css">
	.st0{fill:#F8D7C0;}
	.st1{fill:#BDBDBD;}
	.st2{fill:#E0E1E0;}
	.st3{fill:#E2B291;}
	.st4{fill:#F5BA8C;}
	.st5{fill:#FCCAA4;}
	.st6{fill:#010101;}
	.st7{fill:#FDDAC7;}
	.st8{fill:#F5C4B1;}
	.st9{fill:#FFCB66;}
	.st10{fill:#DCDBDB;}
	.st11{fill:#EAEAEA;}
	.st12{fill:#306BA3;}
	.st13{fill:#C0BFBF;}
	.st14{fill:#F4AD76;}
</style>
<title>Manage Jobs</title>
<rect x="15.9" y="1.4" class="st0" width="36" height="51.6"/>
<g>
	<rect x="20.8" y="6.3" class="st1" width="3.9" height="1.9"/>
	<rect x="43.2" y="7.3" class="st1" width="3.9" height="1.9"/>
	<rect x="42.2" y="12.1" class="st1" width="4.9" height="1.9"/>
	<rect x="37.3" y="7.3" class="st1" width="3.9" height="1.9"/>
</g>
<polygon class="st0" points="46.1,17 46.1,57.9 10,57.9 10,7.3 36.3,7.3 "/>
<path id="SVGCleanerId_0" class="st2" d="M10,50.5v7.4h36V17l-2.5-2.5C35.9,31.4,20.3,43.8,10,50.5z"/>
<g>
	<path id="SVGCleanerId_0_1_" class="st3" d="M10,50.5v7.4h36V17l-2.5-2.5C35.9,31.4,20.3,43.8,10,50.5z"/>
</g>
<g>
	<rect x="15.9" y="43.3" class="st1" width="24.3" height="1.9"/>
	<rect x="15.9" y="48.2" class="st1" width="14.6" height="1.9"/>
	<rect x="21.7" y="38.4" class="st1" width="18.5" height="1.9"/>
	<rect x="15.9" y="38.4" class="st1" width="3.9" height="1.9"/>
	<rect x="15.9" y="13.1" class="st1" width="12.7" height="1.9"/>
	<rect x="15.9" y="18" class="st1" width="8.8" height="1.9"/>
	<rect x="32.4" y="48.2" class="st1" width="3.9" height="1.9"/>
</g>
<rect x="36.3" y="17" class="st4" width="9.7" height="1.9"/>
<polygon class="st5" points="46.1,17 36.3,17 36.3,7.3 "/>
<path class="st6" d="M10,58.9h36c0.5,0,1-0.4,1-1V54h4.9c0.5,0,1-0.4,1-1V1.4c0-0.5-0.4-1-1-1h-36c-0.5,0-1,0.4-1,1v4.9H10
	c-0.5,0-1,0.4-1,1v50.6C9.1,58.4,9.5,58.9,10,58.9z M16.9,2.4h34.1v49.7h-3.9V17c0-0.3-0.1-0.5-0.3-0.7l-2.2-2.2h2.5v-1.9h-4.5
	l-2.9-2.9h1.5V7.3h-3.5L37,6.6c-0.2-0.2-0.4-0.3-0.7-0.3H16.9V2.4z M43.7,16h-6.4V9.6L43.7,16z M11,8.2h24.3V17c0,0.5,0.4,1,1,1h8.8
	v39H11V8.2z"/>
<rect x="15.9" y="43.3" class="st6" width="24.3" height="1.9"/>
<rect x="15.9" y="48.2" class="st6" width="14.6" height="1.9"/>
<rect x="21.7" y="38.4" class="st6" width="18.5" height="1.9"/>
<rect x="15.9" y="38.4" class="st6" width="3.9" height="1.9"/>
<rect x="15.9" y="13.1" class="st6" width="12.7" height="1.9"/>
<rect x="15.9" y="18" class="st6" width="8.8" height="1.9"/>
<rect x="43.2" y="7.3" class="st6" width="3.9" height="1.9"/>
<rect x="32.4" y="48.2" class="st6" width="3.9" height="1.9"/>
<path class="st7" d="M35.9,24.2h-0.4v2.6h0.4c0.7,0,1.3-0.6,1.3-1.3C37.2,24.8,36.7,24.2,35.9,24.2z"/>
<path class="st8" d="M25,25.5c0,0.7,0.6,1.3,1.3,1.3h0.4v-2.6h-0.4C25.6,24.2,25,24.8,25,25.5z"/>
<path class="st9" d="M35.9,24.2l0.5-2.6c0.2-1-0.5-2-1.5-2.1c-0.1,0-0.2,0-0.3,0l0,0c-0.3-0.8-1-1.3-1.8-1.3h-5.2l-0.9-1.3l-0.4,0.4
	c-1.2,1.2-1.2,3.2,0,4.4c0,0,0,0,0,0h7.9L35.9,24.2z"/>
<path class="st10" d="M37.3,34.3l-3.2-0.4l-3,1.7l-3-1.7L25,34.3c-1.7,0.2-3,1.7-3,3.4v4.8h18.3v-4.8C40.3,36,39,34.5,37.3,34.3z"/>
<polygon class="st7" points="34.1,33.8 33.7,33.8 33.7,30.7 28.5,30.7 28.5,33.8 28.2,33.8 31.1,35.5 "/>
<g>
	<polygon class="st11" points="28.5,37.3 31.1,35.5 28.5,33.8 27.6,33.8 	"/>
	<polygon class="st11" points="31.1,35.5 33.7,37.3 34.6,33.8 33.7,33.8 	"/>
</g>
<polyline class="st12" points="29.8,42.5 30.3,37.7 29.8,36.4 31.1,35.5 32.4,36.4 32,37.7 32.4,42.5 "/>
<path class="st8" d="M33.7,33.2v-2.4h-5.2v2.4C30.5,34,31.8,34,33.7,33.2z"/>
<path class="st13" d="M22,37.7v4.8h1.7v-7.8C22.6,35.3,22,36.5,22,37.7z"/>
<path class="st7" d="M35.9,24.2v2.5c0,1.2-0.3,2.4-0.9,3.5l0,0c-0.8,1.4-2.3,2.3-3.9,2.3l0,0c-1.6,0-3.1-0.9-3.9-2.3l0,0
	c-0.6-1.1-0.9-2.3-0.9-3.5v-5.1h7.9L35.9,24.2z"/>
<path class="st8" d="M28.1,21.6h-1.7v5.1c0,1.2,0.3,2.4,0.9,3.5c0.4,0.8,1.1,1.4,1.9,1.8C27.6,27.7,28.1,21.6,28.1,21.6z"/>
<path class="st14" d="M25.5,18.7c-0.3,1,0,2.2,0.8,2.9h7C28.4,21.6,26.3,19.8,25.5,18.7z"/>
<path class="st6" d="M35.9,27.3h-0.4v-0.9h0.4c0.5,0,0.9-0.4,0.9-0.9s-0.4-0.9-0.9-0.9h-0.4v-0.9h0.4c1,0,1.7,0.8,1.7,1.7
	S36.9,27.3,35.9,27.3z"/>
<path class="st6" d="M26.8,27.3h-0.4c-1,0-1.7-0.8-1.7-1.7s0.8-1.7,1.7-1.7h0.4v0.9h-0.4c-0.5,0-0.9,0.4-0.9,0.9s0.4,0.9,0.9,0.9
	h0.4V27.3z"/>
<path class="st6" d="M31.6,28.1h-1.3c-0.1,0-0.3-0.1-0.3-0.2c-0.1-0.1-0.1-0.3-0.1-0.4l0.9-3.1l0.8,0.2l-0.7,2.5h0.7L31.6,28.1
	L31.6,28.1z"/>
<path class="st6" d="M31.1,32.9C31.1,32.9,31.1,32.9,31.1,32.9c-1.8,0-3.4-1-4.3-2.5c-0.6-1.1-1-2.4-1-3.7v-5.1
	c0-0.2,0.2-0.4,0.4-0.4h7.9c0.1,0,0.3,0.1,0.4,0.2l1.7,2.6c0,0.1,0.1,0.2,0.1,0.2v2.5c0,1.3-0.3,2.6-1,3.7
	C34.5,32,32.9,32.9,31.1,32.9z M31.1,32C31.1,32,31.1,32,31.1,32c1.5,0,2.8-0.8,3.5-2.1c0.6-1,0.9-2.2,0.9-3.3v-2.4L34,22h-7.2v4.7
	c0,1.2,0.3,2.3,0.9,3.3C28.3,31.3,29.7,32,31.1,32C31.1,32,31.1,32,31.1,32z"/>
<path class="st6" d="M30.8,29.9h-0.5V29h0.5c0.7,0,1.3-0.3,1.8-0.7l0.6,0.6C32.5,29.5,31.7,29.9,30.8,29.9z"/>
<circle class="st6" cx="28.5" cy="25.1" r="0.9"/>
<circle class="st6" cx="33.8" cy="25.1" r="0.9"/>
<path class="st6" d="M36.4,24.7l-0.9-0.1l0.5-3.1c0.1-0.4,0-0.7-0.2-1.1c-0.2-0.3-0.5-0.5-0.9-0.6c-0.1,0-0.2,0-0.2,0c0,0,0,0,0,0
	c-0.2,0-0.4-0.1-0.4-0.3c-0.2-0.6-0.8-1-1.4-1h-5.2c-0.1,0-0.3-0.1-0.4-0.2l-0.6-0.9l-0.1,0.1c-0.5,0.5-0.8,1.2-0.8,1.9
	c0,0.7,0.3,1.4,0.8,1.9L26,21.9c-1.4-1.4-1.4-3.6,0-5l0.4-0.4c0.1-0.1,0.2-0.1,0.4-0.1c0.1,0,0.2,0.1,0.3,0.2l0.7,1.1h4.9
	c0.9,0,1.7,0.5,2.1,1.3c0,0,0.1,0,0.1,0c0.6,0.1,1.1,0.4,1.5,0.9s0.5,1.1,0.4,1.7L36.4,24.7z"/>
<path class="st6" d="M22.4,42.5h-0.9v-4.8c0-2,1.5-3.6,3.4-3.9l3.1-0.4v-1.8H29v2.2c0,0.2-0.2,0.4-0.4,0.4l-3.5,0.5
	c-1.5,0.2-2.6,1.5-2.6,3C22.4,37.7,22.4,42.5,22.4,42.5z"/>
<path class="st6" d="M40.7,42.5h-0.9v-4.8c0-1.5-1.1-2.8-2.6-3l-3.5-0.5c-0.2,0-0.4-0.2-0.4-0.4v-2.2h0.9v1.8l3.1,0.4
	c1.9,0.3,3.4,1.9,3.4,3.9V42.5L40.7,42.5z"/>
<rect x="25" y="39" class="st6" width="0.9" height="3.5"/>
<rect x="36.4" y="39" class="st6" width="0.9" height="3.5"/>
<path class="st6" d="M28.5,37.7c-0.1,0-0.1,0-0.2,0c-0.1-0.1-0.2-0.2-0.3-0.3l-0.9-3.5l0.8-0.2l0.7,2.9l2.1-1.4l0.5,0.7l-2.6,1.7
	C28.7,37.7,28.6,37.7,28.5,37.7z"/>
<path class="st6" d="M31.1,36c-0.1,0-0.1,0-0.2-0.1l-3.1-1.7l0.4-0.8l2.8,1.6l2.8-1.6l0.4,0.8l-3.1,1.7C31.3,36,31.2,36,31.1,36z"/>
<path class="st6" d="M33.7,37.7c-0.1,0-0.2,0-0.2-0.1l-2.6-1.7l0.5-0.7l2.1,1.4l0.7-2.9l0.8,0.2l-0.9,3.5c0,0.1-0.1,0.2-0.3,0.3
	C33.9,37.7,33.8,37.7,33.7,37.7z"/>
<path class="st6" d="M30.3,42.6l-0.9-0.1l0.4-4.7l-0.4-1.2l0.8-0.3l0.4,1.3c0,0.1,0,0.1,0,0.2L30.3,42.6z"/>
<path class="st6" d="M32,42.6l-0.4-4.8c0-0.1,0-0.1,0-0.2l0.4-1.3l0.8,0.3l-0.4,1.2l0.4,4.7L32,42.6z"/>
<rect x="30.3" y="37.3" class="st6" width="1.7" height="0.9"/>
</svg>
