<svg height="512" viewBox="0 0 256 256" width="512" xmlns="http://www.w3.org/2000/svg"><rect fill="#63bce7" height="154.91" rx="14.009" width="224.78" x="15.61" y="28.596"/><rect fill="#f8af23" height="125.366" rx="5.388" width="207.538" x="24.231" y="37.216"/><path d="m42.731 157.195v-114.595a5.4 5.4 0 0 1 5.388-5.388h-18.5a5.4 5.4 0 0 0 -5.388 5.388v114.59a5.4 5.4 0 0 0 5.388 5.388h18.5a5.4 5.4 0 0 1 -5.388-5.383z" fill="#f87023"/><path d="m213.269 157.195v-114.595a5.4 5.4 0 0 0 -5.388-5.388h18.5a5.4 5.4 0 0 1 5.388 5.388v114.59a5.4 5.4 0 0 1 -5.388 5.388h-18.5a5.4 5.4 0 0 0 5.388-5.383z" fill="#f8d323"/><path d="m88.847 206.221h78.305v9.429h-78.305z" fill="#f46275"/><path d="m88.847 206.221h18.5v9.429h-18.5z" fill="#f43075"/><path d="m99.983 183.505h56.035v22.716h-56.035z" fill="#9e9e9e"/><path d="m99.983 183.505h18.5v22.716h-18.5z" fill="#707070"/><circle cx="128" cy="173.044" fill="#f46275" r="4.613"/><path d="m66.729 53.333h19v35.667h-19z" fill="#63bce7"/><path d="m101.243 66h19v23h-19z" fill="#f46275"/><path d="m135.757 53.333h19v35.667h-19z" fill="#63bce7"/><path d="m170.271 66h19v23h-19z" fill="#f46275"/><path d="m76.9 103.052v22.148h-22.15a22.152 22.152 0 1 0 22.15-22.148z" fill="#9e9e9e"/><path d="m76.9 103.052a22.152 22.152 0 0 0 -22.15 22.148h22.15z" fill="#f46275"/><path d="m135.757 103.052h65.493v6.962h-65.493z" fill="#f46275"/><path d="m135.757 115.802h65.493v6.962h-65.493z" fill="#9e9e9e"/><path d="m135.757 128.552h65.493v6.962h-65.493z" fill="#f46275"/><path d="m135.757 141.302h65.493v6.962h-65.493z" fill="#9e9e9e"/><path d="m116.762 103.052h6.962v6.962h-6.962z" fill="#63bce7"/><path d="m116.762 115.802h6.962v6.962h-6.962z" fill="#63bce7"/><path d="m116.762 128.552h6.962v6.962h-6.962z" fill="#63bce7"/><path d="m116.762 141.302h6.962v6.962h-6.962z" fill="#63bce7"/><g fill="#3f3679"><path d="m29.619 185.006h68.863v19.715h-9.635a1.5 1.5 0 0 0 -1.5 1.5v7.93h-61.457a1.5 1.5 0 0 0 0 3h204.22a1.5 1.5 0 0 0 0-3h-61.457v-7.93a1.5 1.5 0 0 0 -1.5-1.5h-9.635v-19.715h68.864a15.526 15.526 0 0 0 15.508-15.506v-126.9a15.526 15.526 0 0 0 -15.509-15.5h-196.762a15.526 15.526 0 0 0 -15.509 15.5v126.9a15.526 15.526 0 0 0 15.509 15.506zm136.034 29.144h-75.306v-6.43h75.306zm-11.135-9.43h-53.036v-19.714h53.035zm-137.408-162.12a12.523 12.523 0 0 1 12.509-12.5h196.762a12.523 12.523 0 0 1 12.509 12.5v126.9a12.523 12.523 0 0 1 -12.508 12.509h-196.763a12.523 12.523 0 0 1 -12.509-12.509z"/><path d="m29.619 164.083h196.762a6.9 6.9 0 0 0 6.888-6.889v-114.594a6.9 6.9 0 0 0 -6.888-6.889h-196.762a6.9 6.9 0 0 0 -6.888 6.889v114.59a6.9 6.9 0 0 0 6.888 6.893zm-3.888-121.483a3.893 3.893 0 0 1 3.888-3.889h196.762a3.893 3.893 0 0 1 3.888 3.889v114.59a3.893 3.893 0 0 1 -3.888 3.889h-196.762a3.893 3.893 0 0 1 -3.888-3.889z"/><path d="m128 166.931a6.113 6.113 0 1 0 6.113 6.113 6.12 6.12 0 0 0 -6.113-6.113zm0 9.227a3.113 3.113 0 1 1 3.113-3.113 3.117 3.117 0 0 1 -3.113 3.112z"/><path d="m25.89 225.9h-18.5a1.5 1.5 0 1 0 0 3h18.5a1.5 1.5 0 1 0 0-3z"/><path d="m248.61 225.9h-18.5a1.5 1.5 0 0 0 0 3h18.5a1.5 1.5 0 0 0 0-3z"/><path d="m215.337 225.9h-174.674a1.5 1.5 0 0 0 0 3h174.674a1.5 1.5 0 0 0 0-3z"/><path d="m7.39 217.15h7.944a1.5 1.5 0 1 0 0-3h-7.944a1.5 1.5 0 1 0 0 3z"/><path d="m239.167 215.65a1.5 1.5 0 0 0 1.5 1.5h7.944a1.5 1.5 0 0 0 0-3h-7.944a1.5 1.5 0 0 0 -1.5 1.5z"/><path d="m54.75 90.5h146.5a1.5 1.5 0 0 0 0-3h-10.479v-21.5a1.5 1.5 0 0 0 -1.5-1.5h-19a1.5 1.5 0 0 0 -1.5 1.5v21.5h-12.514v-34.167a1.5 1.5 0 0 0 -1.5-1.5h-19a1.5 1.5 0 0 0 -1.5 1.5v34.167h-12.514v-21.5a1.5 1.5 0 0 0 -1.5-1.5h-19a1.5 1.5 0 0 0 -1.5 1.5v21.5h-12.514v-34.167a1.5 1.5 0 0 0 -1.5-1.5h-19a1.5 1.5 0 0 0 -1.5 1.5v34.167h-10.479a1.5 1.5 0 0 0 0 3zm117.021-23h16v20h-16zm-34.514-12.667h16v32.667h-16zm-34.514 12.667h16v20h-16zm-34.514-12.667h16v32.667h-16z"/><path d="m76.9 148.855a23.651 23.651 0 1 0 -23.65-23.655 23.679 23.679 0 0 0 23.65 23.655zm-1.5-44.249v19.1h-19.1a20.687 20.687 0 0 1 19.1-19.1zm1.5 22.1a1.5 1.5 0 0 0 1.5-1.5v-20.6a20.652 20.652 0 1 1 -22.1 22.1z"/><path d="m201.25 101.553h-65.493a1.5 1.5 0 0 0 -1.5 1.5v6.961a1.5 1.5 0 0 0 1.5 1.5h65.493a1.5 1.5 0 0 0 1.5-1.5v-6.961a1.5 1.5 0 0 0 -1.5-1.5zm-1.5 6.961h-62.493v-3.961h62.493z"/><path d="m201.25 114.3h-65.493a1.5 1.5 0 0 0 -1.5 1.5v6.961a1.5 1.5 0 0 0 1.5 1.5h65.493a1.5 1.5 0 0 0 1.5-1.5v-6.961a1.5 1.5 0 0 0 -1.5-1.5zm-1.5 6.961h-62.493v-3.961h62.493z"/><path d="m201.25 127.053h-65.493a1.5 1.5 0 0 0 -1.5 1.5v6.961a1.5 1.5 0 0 0 1.5 1.5h65.493a1.5 1.5 0 0 0 1.5-1.5v-6.961a1.5 1.5 0 0 0 -1.5-1.5zm-1.5 6.961h-62.493v-3.961h62.493z"/><path d="m201.25 139.8h-65.493a1.5 1.5 0 0 0 -1.5 1.5v6.961a1.5 1.5 0 0 0 1.5 1.5h65.493a1.5 1.5 0 0 0 1.5-1.5v-6.961a1.5 1.5 0 0 0 -1.5-1.5zm-1.5 6.961h-62.493v-3.961h62.493z"/><path d="m123.724 101.553h-6.961a1.5 1.5 0 0 0 -1.5 1.5v6.961a1.5 1.5 0 0 0 1.5 1.5h6.961a1.5 1.5 0 0 0 1.5-1.5v-6.961a1.5 1.5 0 0 0 -1.5-1.5zm-1.5 6.961h-3.961v-3.961h3.961z"/><path d="m123.724 114.3h-6.961a1.5 1.5 0 0 0 -1.5 1.5v6.961a1.5 1.5 0 0 0 1.5 1.5h6.961a1.5 1.5 0 0 0 1.5-1.5v-6.961a1.5 1.5 0 0 0 -1.5-1.5zm-1.5 6.961h-3.961v-3.961h3.961z"/><path d="m123.724 127.053h-6.961a1.5 1.5 0 0 0 -1.5 1.5v6.961a1.5 1.5 0 0 0 1.5 1.5h6.961a1.5 1.5 0 0 0 1.5-1.5v-6.961a1.5 1.5 0 0 0 -1.5-1.5zm-1.5 6.961h-3.961v-3.961h3.961z"/><path d="m123.724 139.8h-6.961a1.5 1.5 0 0 0 -1.5 1.5v6.961a1.5 1.5 0 0 0 1.5 1.5h6.961a1.5 1.5 0 0 0 1.5-1.5v-6.961a1.5 1.5 0 0 0 -1.5-1.5zm-1.5 6.961h-3.961v-3.961h3.961z"/></g></svg>