<svg height="" viewBox="0 0 256 256" width="" xmlns="http://www.w3.org/2000/svg"><path d="m183.931 165.423h38.721v38.721h-38.721z" fill="#63bce7"/><path d="m183.931 88.203h38.721v38.721h-38.721z" fill="#63bce7"/><path d="m183.931 10.983h38.721v38.721h-38.721z" fill="#63bce7"/><path d="m27.945 165.423h38.721v38.721h-38.721z" fill="#63bce7"/><path d="m27.945 88.203h38.721v38.721h-38.721z" fill="#63bce7"/><path d="m27.945 10.983h38.721v38.721h-38.721z" fill="#63bce7"/><path d="m27.945 10.983h9.5v38.721h-9.5z" fill="#6377e7"/><path d="m213.152 10.983h9.5v38.721h-9.5z" fill="#63e2e7"/><path d="m213.152 88.203h9.5v38.721h-9.5z" fill="#63e2e7"/><path d="m213.152 165.423h9.5v38.721h-9.5z" fill="#63e2e7"/><path d="m27.945 88.203h9.5v38.721h-9.5z" fill="#6377e7"/><path d="m27.945 165.423h9.5v38.721h-9.5z" fill="#6377e7"/><path d="m108.639 10.983h38.721v38.721h-38.721z" fill="#63bce7"/><path d="m108.639 165.423h38.721v38.721h-38.721z" fill="#63bce7"/><rect fill="#f46275" height="68.621" rx="10.995" width="21.989" x="117.005" y="165.423"/><circle cx="128" cy="107.564" fill="#f46275" r="42.167"/><circle cx="128" cy="107.564" fill="#f8af23" r="31.51"/><path d="m108.639 88.203h38.721v38.721h-38.721z" fill="#9e9e9e"/><g fill="#3f3679"><path d="m27.944 51.2h38.722a1.5 1.5 0 0 0 1.5-1.5v-38.718a1.5 1.5 0 0 0 -1.5-1.5h-38.722a1.5 1.5 0 0 0 -1.5 1.5v38.718a1.5 1.5 0 0 0 1.5 1.5zm1.5-38.722h35.722v35.722h-35.722z"/><path d="m108.64 51.2h38.72a1.5 1.5 0 0 0 1.5-1.5v-38.718a1.5 1.5 0 0 0 -1.5-1.5h-38.72a1.5 1.5 0 0 0 -1.5 1.5v38.718a1.5 1.5 0 0 0 1.5 1.5zm1.5-38.722h35.72v35.722h-35.72z"/><path d="m183.931 51.2h38.722a1.5 1.5 0 0 0 1.5-1.5v-38.718a1.5 1.5 0 0 0 -1.5-1.5h-38.722a1.5 1.5 0 0 0 -1.5 1.5v38.718a1.5 1.5 0 0 0 1.5 1.5zm1.5-38.722h35.722v35.722h-35.722z"/><path d="m27.944 128.424h38.722a1.5 1.5 0 0 0 1.5-1.5v-38.724a1.5 1.5 0 0 0 -1.5-1.5h-38.722a1.5 1.5 0 0 0 -1.5 1.5v38.721a1.5 1.5 0 0 0 1.5 1.503zm1.5-38.721h35.722v35.721h-35.722z"/><path d="m183.931 128.424h38.722a1.5 1.5 0 0 0 1.5-1.5v-38.724a1.5 1.5 0 0 0 -1.5-1.5h-38.722a1.5 1.5 0 0 0 -1.5 1.5v38.721a1.5 1.5 0 0 0 1.5 1.503zm1.5-38.721h35.722v35.721h-35.722z"/><path d="m27.944 205.645h38.722a1.5 1.5 0 0 0 1.5-1.5v-38.722a1.5 1.5 0 0 0 -1.5-1.5h-38.722a1.5 1.5 0 0 0 -1.5 1.5v38.722a1.5 1.5 0 0 0 1.5 1.5zm1.5-38.722h35.722v35.722h-35.722z"/><path d="m183.931 205.645h38.722a1.5 1.5 0 0 0 1.5-1.5v-38.722a1.5 1.5 0 0 0 -1.5-1.5h-38.722a1.5 1.5 0 0 0 -1.5 1.5v38.722a1.5 1.5 0 0 0 1.5 1.5zm1.5-38.722h35.722v35.722h-35.722z"/><path d="m161.01 107.563a33.01 33.01 0 1 0 -33.01 33.01 33.048 33.048 0 0 0 33.01-33.01zm-63.02 0a30.01 30.01 0 1 1 30.01 30.01 30.043 30.043 0 0 1 -30.01-30.01z"/><path d="m148.86 126.924v-38.724a1.5 1.5 0 0 0 -1.5-1.5h-38.72a1.5 1.5 0 0 0 -1.5 1.5v38.721a1.5 1.5 0 0 0 1.5 1.5h38.72a1.5 1.5 0 0 0 1.5-1.497zm-3-1.5h-35.72v-35.724h35.72z"/><path d="m27.323 243.518h-18a1.5 1.5 0 0 0 0 3h18a1.5 1.5 0 1 0 0-3z"/><path d="m246.68 243.518h-18a1.5 1.5 0 0 0 0 3h18a1.5 1.5 0 0 0 0-3z"/><path d="m218.479 243.518h-180.958a1.5 1.5 0 0 0 0 3h180.958a1.5 1.5 0 0 0 0-3z"/><path d="m9.32 235.544h237.36a1.5 1.5 0 0 0 0-3h-110.58a12.463 12.463 0 0 0 4.393-9.494v-17.405h6.866a1.5 1.5 0 0 0 1.5-1.5v-38.722a1.5 1.5 0 0 0 -1.5-1.5h-17.859v-12.73a43.667 43.667 0 1 0 -3 0v12.73h-17.86a1.5 1.5 0 0 0 -1.5 1.5v38.722a1.5 1.5 0 0 0 1.5 1.5h6.866v17.405a12.463 12.463 0 0 0 4.393 9.494h-110.579a1.5 1.5 0 0 0 0 3zm136.54-32.9h-5.366v-26.226a12.464 12.464 0 0 0 -4.394-9.5h9.76zm-58.527-95.081a40.667 40.667 0 1 1 40.667 40.667 40.713 40.713 0 0 1 -40.667-40.667zm22.807 95.081v-35.721h9.76a12.464 12.464 0 0 0 -4.394 9.5v26.227zm8.366 20.405v-46.631a9.494 9.494 0 1 1 18.988 0v46.632a9.494 9.494 0 0 1 -18.988 0z"/></g></svg>