<svg version="1.1" id="Layer_1" height="40" width="40" xmlns="http://www.w3.org/2000/svg" xmlns:xlink="http://www.w3.org/1999/xlink" x="0px" y="0px"
	 viewBox="0 0 60 60" style="enable-background:new 0 0 60 60;" xml:space="preserve">
<style type="text/css">
	.st0{fill:#89B440;}
	.st1{fill:#6B973F;}
	.st2{fill:#FDB62E;}
	.st3{fill:#FCCAA5;}
	.st4{fill:#F6BB8E;}
	.st5{fill:#4399D3;}
	.st6{fill:#3F8DC8;}
	.st7{fill:#D9D9D8;}
	.st8{fill:#010101;}
</style>
<title>Payments And Incentives</title>
<g>
	<path class="st0" d="M48.4,38.3c0-0.4-0.1-0.8-0.3-1.2l-2.1-3.4c-0.3-0.5-0.4-1.1-0.4-1.7V21.4C45.5,14.5,39.9,9,33,9h-5.7
		c-6.9,0-12.4,5.6-12.4,12.4V32c0,0.6-0.1,1.2-0.4,1.7l-2.1,3.4c-0.2,0.4-0.3,0.8-0.3,1.2l0,0c0,1.2,1,2.2,2.2,2.2h31.9
		C47.4,40.5,48.3,39.5,48.4,38.3z"/>
	<polygon class="st0" points="33,9 37.8,2.3 22.5,2.3 27.3,9 27.3,10.9 33,10.9 	"/>
</g>
<path class="st1" d="M48,37.1l-2.1-3.4c-0.3-0.5-0.4-1.1-0.4-1.7V21.4c0-2.8-0.9-5.5-2.6-7.7c-2.6,14.1-11.5,22.2-20,26.8h23.2
	c1.2,0,2.2-1,2.2-2.2C48.4,37.9,48.3,37.5,48,37.1L48,37.1z"/>
<g>
	<path class="st2" d="M49.3,11.8L49.3,11.8c-0.3-2-1.9-3.5-3.8-3.8l0,0c2-0.3,3.5-1.9,3.8-3.8l0,0c0.3,2,1.9,3.5,3.8,3.8l0,0
		C51.2,8.3,49.6,9.9,49.3,11.8z"/>
	<path class="st2" d="M6.3,31L6.3,31c-0.3-2-1.9-3.5-3.8-3.8l0,0c2-0.3,3.5-1.9,3.8-3.8l0,0c0.3,2,1.9,3.5,3.8,3.8l0,0
		C8.1,27.5,6.6,29,6.3,31z"/>
</g>
<path class="st3" d="M57.5,35.6c-0.8-1.3-2.5-1.8-3.8-1.1l-13.6,5.8c-0.2,0.1-0.5,0.2-0.8,0.2H22.5c-1.1,0-1.9-0.9-1.9-1.9
	c0-1.1,0.9-1.9,1.9-1.9h7.7c3.2,0,5.7-2.6,5.7-5.7H20c-2.6,0-5.1,1.2-6.8,3.3l-6,7.3L14,53.9l26-6.2c1.1-0.3,2.2-0.7,3.2-1.2
	l13.4-6.9C57.9,38.7,58.3,37,57.5,35.6z"/>
<path class="st4" d="M11.8,49.9l2.2,3.9l26-6.2c1.1-0.3,2.2-0.7,3.2-1.2l7.2-3.7C38.4,46.4,22.4,48.7,11.8,49.9z"/>
<polygon class="st5" points="2.4,40.5 2.4,57.7 14.9,57.7 17.7,54.9 6.3,37.7 "/>
<path class="st6" d="M2.4,57.7h12.4l2.9-2.9l-2.1-3.2c-4.3,1.8-8.7,3.1-13.2,3.9V57.7z"/>
<circle class="st7" cx="11" cy="53" r="1.9"/>
<path class="st8" d="M2.4,58.7h12.4c0.3,0,0.5-0.1,0.7-0.3l2.9-2.9c0.3-0.3,0.4-0.8,0.1-1.2l-0.5-0.7l22.1-5.1
	c1.2-0.3,2.4-0.7,3.5-1.3L57,40.4c1.8-1,2.5-3.4,1.5-5.2c-1-1.8-3.4-2.5-5.2-1.5l0,0l-5.2,2.2l-1.3-2.7c-0.2-0.4-0.3-0.8-0.3-1.3
	V21.4c0-6.7-5-12.4-11.6-13.3l3.8-5.3c0.3-0.4,0.2-1-0.2-1.3c-0.2-0.1-0.4-0.2-0.6-0.2H22.5c-0.5,0-1,0.4-1,1c0,0.2,0.1,0.4,0.2,0.6
	l3.8,5.3C18.9,9,13.9,14.7,13.9,21.4v10.8c-0.5,0.4-1,0.9-1.4,1.4l-4.2,5.3L7,37.1c-0.1-0.2-0.4-0.4-0.6-0.4c-0.3,0-0.5,0-0.7,0.2
	l-3.8,2.9c-0.2,0.2-0.4,0.5-0.4,0.8v17.2C1.5,58.3,1.9,58.7,2.4,58.7z M24.4,3.2H36L32.6,8h-4.8L24.4,3.2z M25.7,30H20
	c-1.4,0-2.9,0.3-4.2,1v-9.6h0c0-6.3,5.1-11.5,11.5-11.5H33c6.3,0,11.5,5.1,11.5,11.5V32c0,0.7,0.2,1.5,0.5,2.1l1.3,2.6l-6.6,2.8
	c-0.1,0.1-0.2,0.1-0.4,0.1H22.5c-0.5,0-1-0.4-1-1c0-0.5,0.4-1,1-1h7.7c3.7,0,6.7-3,6.7-6.7c0-0.5-0.4-1-1-1h-1.2 M29.2,30h-0.6
	 M31.7,30L31.7,30h-0.6 M14,34.8c1.5-1.8,3.7-2.9,6-2.9h14.9c-0.5,2.2-2.4,3.8-4.7,3.8h-7.7c-1.6,0-2.9,1.3-2.9,2.9
	c0,1.6,1.3,2.9,2.9,2.9h16.8c0.4,0,0.8-0.1,1.1-0.2l13.7-5.8c0.9-0.5,2.1-0.2,2.6,0.7c0.5,0.9,0.2,2.1-0.7,2.6l0,0l-13.3,6.9
	c-1,0.5-2,0.9-3,1.1l-22.8,5.3L9.4,40.6L14,34.8z M3.4,41L6,39l10.5,15.7l-2.1,2H3.4V41z"/>
<path class="st8" d="M11,50.1c-1.6,0-2.9,1.3-2.9,2.9c0,1.6,1.3,2.9,2.9,2.9s2.9-1.3,2.9-2.9C13.9,51.4,12.6,50.1,11,50.1z M11,53.9
	c-0.5,0-1-0.4-1-1c0-0.5,0.4-1,1-1s1,0.4,1,1S11.6,53.9,11,53.9z"/>
<path class="st8" d="M48.4,4c-0.3,1.5-1.5,2.8-3,3c-0.5,0-1,0.4-1,1s0.4,1,1,1c1.5,0.3,2.8,1.5,3,3c0,0.5,0.4,1,1,1c0.5,0,1-0.4,1-1
	c0.3-1.5,1.5-2.8,3-3c0.5,0,1-0.4,1-1s-0.4-1-1-1c-1.5-0.3-2.8-1.5-3-3c0-0.5-0.4-1-1-1C48.8,3.1,48.4,3.5,48.4,4z M50.7,8
	c-0.5,0.4-1,0.8-1.4,1.4c-0.4-0.5-0.8-1-1.4-1.4c0.5-0.4,1-0.8,1.4-1.4C49.7,7.2,50.1,7.6,50.7,8z"/>
<path class="st8" d="M2.3,28.1c1.5,0.3,2.8,1.5,3,3c0,0.5,0.4,1,1,1s1-0.4,1-1c0.3-1.5,1.5-2.8,3-3c0.5,0,1-0.4,1-1s-0.4-1-1-1
	c-1.5-0.3-2.8-1.5-3-3c0-0.5-0.4-1-1-1s-1,0.4-1,1c-0.3,1.5-1.5,2.8-3,3c-0.5,0-1,0.4-1,1S1.7,28.1,2.3,28.1z M6.3,25.8
	c0.4,0.5,0.8,1,1.4,1.4c-0.5,0.4-1,0.8-1.4,1.4c-0.4-0.5-0.8-1-1.4-1.4C5.4,26.8,5.9,26.3,6.3,25.8z"/>
<g>
	<path class="st8" d="M33.1,18.6h-0.9c-0.1-0.6-0.4-1.1-0.7-1.6h1.6c0.4,0,0.8-0.4,0.8-0.8c0-0.4-0.4-0.8-0.8-0.8h-4.7h-3.1
		c-0.4,0-0.8,0.4-0.8,0.8c0,0.4,0.4,0.8,0.8,0.8h3.1c1,0,1.9,0.7,2.2,1.6h-5.3c-0.4,0-0.8,0.4-0.8,0.8c0,0.4,0.4,0.8,0.8,0.8h5.3
		c-0.3,0.9-1.2,1.6-2.2,1.6h-3.1c-0.3,0-0.6,0.2-0.7,0.5c-0.1,0.3-0.1,0.6,0.2,0.9l6.3,6.3c0.2,0.2,0.4,0.2,0.6,0.2
		c0.2,0,0.4-0.1,0.6-0.2c0.3-0.3,0.3-0.8,0-1.1l-4.9-4.9h1.2c1.9,0,3.5-1.3,3.8-3.1h0.9c0.4,0,0.8-0.4,0.8-0.8
		C33.9,19,33.6,18.6,33.1,18.6z"/>
</g>
</svg>
