<svg id="Capa_1" enable-background="new 0 0 501 501" height="40" viewBox="0 0 501 501" width="40" xmlns="http://www.w3.org/2000/svg"><g>
<title>Candidate Database</title>
	<path d="m391.727 454.5c-39.521 26.347-87.133 41.516-138.317 40.987-134.944-1.395-242.696-110.568-242.409-245.519.287-135.065 109.867-244.468 244.999-244.468 123.08 0 224.962 90.758 242.374 209-62.097 12.81-106.647 67.488-106.647 130.892z" fill="#eac23f"/><path d="m410 402.694h-350c-11.046 0-20-8.954-20-20v-246c0-11.046 8.954-20 20-20h350c11.046 0 20 8.954 20 20v246c0 11.045-8.954 20-20 20z" fill="#76b6fa"/><path d="m410 402.694h-321c-11.046 0-20-8.954-20-20v-246c0-11.046 8.954-20 20-20h321c11.046 0 20 8.954 20 20v246c0 11.045-8.954 20-20 20z" fill="#86befb"/><path d="m430 136.694h-390v-20c0-11.046 8.954-20 20-20h350c11.046 0 20 8.954 20 20z" fill="#5f55af"/><path d="m430 116.694h-390v-40c0-11.046 8.954-20 20-20h350c11.046 0 20 8.954 20 20z" fill="#5f55af"/><path d="m430 116.694h-361v-40c0-11.046 8.954-20 20-20h321c11.046 0 20 8.954 20 20z" fill="#8078bf"/><path d="m79 86.694c0 5.523-4.477 10-10 10s-10-4.477-10-10 4.477-10 10-10 10 4.477 10 10zm70-10c-5.523 0-10 4.477-10 10s4.477 10 10 10 10-4.477 10-10-4.477-10-10-10zm-40 0c-5.523 0-10 4.477-10 10s4.477 10 10 10 10-4.477 10-10-4.477-10-10-10z" fill="#453d83"/><path d="m400 264.5h-190c-5.523 0-10-4.477-10-10v-90c0-5.523 4.477-10 10-10h190c5.523 0 10 4.477 10 10v90c0 5.523-4.477 10-10 10z" fill="#e9f3fe"/><path d="m389.149 224.5h-169.149c0-22.091 25.371-40 56.667-40 7.267 0 14.215.966 20.6 2.725 7.017 1.934 14.39-.7 18.855-6.448 7.771-10.003 18.952-16.277 31.378-16.277 23.472 0 42.5 22.386 42.5 50 0 3.425-.293 6.769-.851 10z" fill="#a7d0fc"/><path d="m444.288 407.265c-15.131 18.154-32.839 34.087-52.561 47.235h-146.727c-8.284 0-15-6.716-15-15v-32.235z" fill="#5f55af"/><path d="m501 250.5c0 70.11-29.449 133.341-76.652 178h-189.348v11c0 8.284 6.716 15 15 15h-37c-8.284 0-15-6.716-15-15v-210c0-8.284 6.716-15 15-15h285.374c1.73 11.749 2.626 23.77 2.626 36z" fill="#51489a"/><path d="m235 214.5v214h-22c-8.284 0-15-6.716-15-15v-184c0-8.284 6.716-15 15-15z" fill="#453d83"/><path d="m230 256.5v-10c0-5.523 4.477-10 10-10h15c5.523 0 10 4.477 10 10v10c0 5.523-4.477 10-10 10h-15c-5.523 0-10-4.477-10-10zm105 10h15c5.523 0 10-4.477 10-10v-10c0-5.523-4.477-10-10-10h-15c-5.523 0-10 4.477-10 10v10c0 5.523 4.477 10 10 10zm96.5 0h15c5.523 0 10-4.477 10-10v-10c0-5.523-4.477-10-10-10h-15c-5.523 0-10 4.477-10 10v10c0 5.523 4.477 10 10 10zm-47.5 0h15c5.523 0 10-4.477 10-10v-10c0-5.523-4.477-10-10-10h-15c-5.523 0-10 4.477-10 10v10c0 5.523 4.477 10 10 10zm-96.5 46.667h15c5.523 0 10-4.477 10-10v-10c0-5.523-4.477-10-10-10h-15c-5.523 0-10 4.477-10 10v10c0 5.522 4.477 10 10 10zm-47.5 0h15c5.523 0 10-4.477 10-10v-10c0-5.523-4.477-10-10-10h-15c-5.523 0-10 4.477-10 10v10c0 5.522 4.477 10 10 10zm95 0h15c5.523 0 10-4.477 10-10v-10c0-5.523-4.477-10-10-10h-15c-5.523 0-10 4.477-10 10v10c0 5.522 4.477 10 10 10zm96.5 0h15c5.523 0 10-4.477 10-10v-10c0-5.523-4.477-10-10-10h-15c-5.523 0-10 4.477-10 10v10c0 5.522 4.477 10 10 10zm-47.5 0h15c5.523 0 10-4.477 10-10v-10c0-5.523-4.477-10-10-10h-15c-5.523 0-10 4.477-10 10v10c0 5.522 4.477 10 10 10zm-144 46.666h45c5.523 0 10-4.477 10-10v-10c0-5.523-4.477-10-10-10h-45c-5.523 0-10 4.477-10 10v10c0 5.523 4.477 10 10 10zm70-10c0 5.523 4.477 10 10 10h15c5.523 0 10-4.477 10-10v-10c0-5.523-4.477-10-10-10h-15c-5.523 0-10 4.477-10 10zm49 0c0 5.523 4.477 10 10 10h15c5.523 0 10-4.477 10-10v-10c0-5.523-4.477-10-10-10h-15c-5.523 0-10 4.477-10 10zm41 26.667h-112.5c-5.523 0-10 4.477-10 10v10c0 5.523 4.477 10 10 10h112.5c5.523 0 10-4.477 10-10v-10c0-5.523-4.477-10-10-10zm-145 0h-15c-5.523 0-10 4.477-10 10v10c0 5.523 4.477 10 10 10h15c5.523 0 10-4.477 10-10v-10c0-5.523-4.477-10-10-10zm191.5 0h-15c-5.523 0-10 4.477-10 10v10c0 5.523 4.477 10 10 10h13.424c4.049-4.898 7.912-9.957 11.576-15.164v-4.836c0-5.523-4.477-10-10-10zm54.24-137.387c-1.778-1.623-4.143-2.613-6.74-2.613h-15c-5.523 0-10 4.477-10 10v10c0 5.523 4.477 10 10 10h15c2.546 0 4.87-.952 6.635-2.519.242-4.463.365-8.958.365-13.481 0-3.817-.088-7.613-.26-11.387zm-21.74 44.054c-5.523 0-10 4.477-10 10v36.667h-49c-5.523 0-10 4.477-10 10v10c0 5.523 4.477 10 10 10h55.311c11.637-23.297 19.671-48.709 23.372-75.504-1.397-.742-2.991-1.163-4.683-1.163z" fill="#8078bf"/><path d="m170 374.5h-100c-5.523 0-10-4.477-10-10v-60c0-5.523 4.477-10 10-10h100c5.523 0 10 4.477 10 10v60c0 5.523-4.477 10-10 10z" fill="#e9f3fe"/><path d="m167.5 322c0 4.143-3.357 7.5-7.5 7.5h-80c-4.142 0-7.5-3.357-7.5-7.5s3.358-7.5 7.5-7.5h80c4.143 0 7.5 3.357 7.5 7.5zm-57.5 17.5h-30c-4.142 0-7.5 3.357-7.5 7.5s3.358 7.5 7.5 7.5h30c4.143 0 7.5-3.357 7.5-7.5s-3.357-7.5-7.5-7.5z" fill="#a7d0fc"/><path d="m170 264.5h-160c-5.523 0-10-4.477-10-10v-130c0-5.523 4.477-10 10-10h160c5.523 0 10 4.477 10 10v130c0 5.523-4.477 10-10 10z" fill="#c8e2fd"/><path d="m170 264.5h-130c-5.523 0-10-4.477-10-10v-130c0-5.523 4.477-10 10-10h130c5.523 0 10 4.477 10 10v130c0 5.523-4.477 10-10 10z" fill="#e9f3fe"/><path d="m159 229.5c0 5.523-4.477 10-10 10h-119c-5.523 0-10-4.477-10-10s4.477-10 10-10h119c5.523 0 10 4.477 10 10zm-10-50h-119c-5.523 0-10 4.477-10 10s4.477 10 10 10h119c5.523 0 10-4.477 10-10s-4.477-10-10-10zm-119-20h119c5.523 0 10-4.477 10-10s-4.477-10-10-10h-119c-5.523 0-10 4.477-10 10s4.477 10 10 10z" fill="#a7d0fc"/><path d="m125 189.5c0 5.523-4.477 10-10 10h-85c-5.523 0-10-4.477-10-10s4.477-10 10-10h85c5.523 0 10 4.477 10 10zm-95-30h60c5.523 0 10-4.477 10-10s-4.477-10-10-10h-60c-5.523 0-10 4.477-10 10s4.477 10 10 10zm40 60h-40c-5.523 0-10 4.477-10 10s4.477 10 10 10h40c5.523 0 10-4.477 10-10s-4.477-10-10-10z" fill="#ea552d"/></g></svg>