<?xml version="1.0" encoding="utf-8"?>
<!-- Generator: Adobe Illustrator 23.1.0, SVG Export Plug-In . SVG Version: 6.00 Build 0)  -->
<svg version="1.1" id="Layer_1" xmlns="http://www.w3.org/2000/svg" xmlns:xlink="http://www.w3.org/1999/xlink" x="0px" y="0px"
	 viewBox="0 0 60 60" style="enable-background:new 0 0 60 60;" xml:space="preserve">
<style type="text/css">
	.st0{fill:#FCCAA5;}
	.st1{fill:#F6BB8E;}
	.st2{fill:#88CDD8;}
	.st3{fill:#6DBCC7;}
	.st4{fill:#DCDBDB;}
	.st5{fill:#4399D3;}
	.st6{fill:#010101;}
</style>
<polygon class="st0" points="44.1,42.8 50.7,36.2 38.5,23.9 30,25.8 18.7,37.1 21.5,39.9 17.7,43.7 29.7,55.7 34.6,50.8 35.7,51.8 
	"/>
<path class="st1" d="M30,25.8l-8.5-1.9L9.2,36.2l7.5,7.5l14.5,13c0.9,0.9,2.3,1,3.3,0.3c1-0.8,1.2-2.3,0.3-3.3
	c-0.1-0.1-0.1-0.1-0.2-0.2c0.9,0.9,2.4,0.9,3.3,0s0.9-2.4,0-3.3l0,0c0.9,0.9,2.4,1,3.3,0.1c0.9-0.9,1-2.4,0.1-3.3c0,0,0,0-0.1-0.1
	c0.9,0.9,2.4,0.9,3.3,0c0.1-0.1,0.1-0.1,0.2-0.2c0.8-1,0.6-2.4-0.3-3.2l-2.2-2.2l-5.8-5.9l-1.9-8.5L30,25.8z"/>
<polygon class="st2" points="39.4,17.3 57.3,35.2 57.3,3.2 53.6,3.2 "/>
<polygon class="st3" points="57.3,17 48.2,26.1 57.3,35.2 "/>
<path class="st0" d="M33,51.2c-0.8-1-2.3-1.2-3.3-0.3c-0.1,0.1-0.1,0.1-0.2,0.2c1-0.8,1.1-2.3,0.3-3.3c-0.8-1-2.3-1.1-3.3-0.3
	c-0.1,0.1-0.2,0.2-0.3,0.3c0.9-1,0.8-2.5-0.2-3.3c-0.9-0.8-2.2-0.8-3.1,0c0.9-0.9,0.9-2.4,0-3.3c-0.1-0.1-0.1-0.1-0.2-0.2
	c-1-0.8-2.4-0.6-3.2,0.3l-2.2,2.2c-1.5,1.5-1.5,3.9,0,5.3l8,8c1.5,1.5,3.9,1.5,5.3,0c0,0,0,0,0,0l2.2-2.2
	C33.7,53.6,33.8,52.2,33,51.2z"/>
<rect x="43.8" y="19.5" transform="matrix(0.7071 -0.7071 0.7071 0.7071 -6.2831 41.1103)" class="st4" width="5.3" height="17.3"/>
<polygon class="st5" points="20.5,17.3 2.6,35.2 2.6,3.2 6.4,3.2 "/>
<g>
	
		<rect x="4.8" y="25.5" transform="matrix(0.7071 -0.7071 0.7071 0.7071 -15.9485 17.7733)" class="st4" width="17.3" height="5.3"/>
	<path class="st4" d="M14.9,52.2c-3.6,0-6.6-3-6.6-6.6h1.9c0,2.6,2.1,4.7,4.7,4.7V52.2z"/>
	<path class="st4" d="M14.9,56.9c-6.2,0-11.3-5.1-11.3-11.3h1.9c0,5.2,4.2,9.4,9.4,9.4V56.9z"/>
	<path class="st4" d="M44.1,52.2v-1.9c2.6,0,4.7-2.1,4.7-4.7h1.9C50.7,49.2,47.8,52.2,44.1,52.2z"/>
	<path class="st4" d="M44.1,56.9V55c5.2,0,9.4-4.2,9.4-9.4h1.9C55.4,51.8,50.4,56.9,44.1,56.9z"/>
	<circle class="st4" cx="7.3" cy="23" r="1.9"/>
</g>
<path class="st0" d="M44.1,29.6l-5.7-5.7L30,25.8L18.7,37.1c2,2.1,5.4,2.3,7.5,0.2l3.8-4c2.2,2.3,5.6,3,8.5,1.7l0.9-0.7L44.1,29.6z"
	/>
<circle class="st4" cx="52.6" cy="23" r="1.9"/>
<path class="st6" d="M49.8,23c0,1.6,1.3,2.8,2.8,2.8s2.8-1.3,2.8-2.8s-1.3-2.8-2.8-2.8C51,20.1,49.8,21.4,49.8,23z M53.6,23
	c0,0.5-0.4,0.9-0.9,0.9c-0.5,0-0.9-0.4-0.9-0.9c0-0.5,0.4-0.9,0.9-0.9C53.1,22,53.6,22.4,53.6,23z"/>
<path class="st6" d="M57.3,2.2h-3.8c-0.3,0-0.5,0.1-0.7,0.3L38.7,16.6c-0.4,0.4-0.4,1,0,1.3c0,0,0,0,0,0l2.2,2.2L38,23l-8,1.8
	l-8-1.8l-2.9-2.9l2.2-2.2c0.4-0.4,0.4-1,0-1.3c0,0,0,0,0,0L7.1,2.5C6.9,2.3,6.7,2.2,6.4,2.2H2.6c-0.5,0-0.9,0.4-0.9,0.9v32.1
	c0,0.4,0.2,0.7,0.6,0.9c0.1,0.1,0.2,0.1,0.4,0.1c0.3,0,0.5-0.1,0.7-0.3l2.2-2.2l3.1,3.1l7.1,7.1c-1,1.8-0.6,4,0.8,5.5l8,8
	c0.9,0.9,2.1,1.4,3.3,1.4c1.1,0,2.2-0.4,3.1-1.2c0.6,0.5,1.4,0.8,2.2,0.8c0.7,0,1.5-0.2,2-0.7c0.7-0.6,1.2-1.5,1.2-2.4v-0.2
	c0.9,0,1.7-0.3,2.4-0.9c0.6-0.6,1-1.5,0.9-2.3l0,0c0.9,0,1.7-0.3,2.4-0.9c0.6-0.6,1-1.5,0.9-2.4h0.2c0.9,0,1.8-0.5,2.4-1.2
	c1-1.3,0.9-3.2-0.2-4.4l6-6l3.1-3.2l2.2,2.2c0.2,0.2,0.4,0.3,0.7,0.3c0.1,0,0.2,0,0.4-0.1c0.4-0.1,0.6-0.5,0.6-0.9V3.2
	C58.3,2.6,57.8,2.2,57.3,2.2z M3.6,32.9V4.1H6l13.2,13.2L3.6,32.9z M6.8,32.4l10.9-10.9l2.4,2.4L9.2,34.8L6.8,32.4z M10.6,36.2
	l11.2-11.2l6.3,1.4L18,36.4c-0.4,0.4-0.4,1,0,1.3c0,0,0,0,0,0c0.8,0.8,1.8,1.4,3,1.7c-0.8,0.1-1.6,0.4-2.2,1l-1.9,1.9L10.6,36.2z
	 M17,46.1c0-0.7,0.3-1.5,0.8-2l2.2-2.3c0.3-0.3,0.7-0.5,1.1-0.5c0.3,0,0.6,0.1,0.8,0.3c0.3,0.3,0.5,0.6,0.5,1c0,0.4-0.1,0.8-0.4,1.1
	c0,0-0.1,0.1-0.1,0.2L17.8,48C17.3,47.4,17,46.8,17,46.1z M19.1,49.4l4.6-4.4c0.6-0.5,1.5-0.3,2,0.3c0.4,0.5,0.4,1.2,0,1.7l-4.6,4.4
	L19.1,49.4z M24.4,54.6l-1.9-2l4.3-4.1l0.1-0.1c0.6-0.5,1.4-0.5,2,0c0.4,0.5,0.5,1.2,0.2,1.7L24.4,54.6z M29.8,56.1
	c-1.1,1.1-2.9,1.1-4,0L25.7,56l4.1-4c0.1,0,0.2-0.1,0.3-0.2c0.3-0.3,0.7-0.4,1.1-0.4c0.4,0,0.8,0.2,1,0.5l0,0c0.4,0.6,0.4,1.5-0.2,2
	L29.8,56.1z M33.9,56.2c-0.5,0.4-1.1,0.4-1.6,0.1l1.1-1.1c0.3-0.3,0.5-0.6,0.7-0.9C34.6,54.8,34.6,55.7,33.9,56.2
	C34,56.2,33.9,56.3,33.9,56.2L33.9,56.2z M44.1,46c-0.3,0.3-0.6,0.5-1,0.5c-0.4,0-0.8-0.1-1.1-0.4c0,0-0.1-0.1-0.2-0.1l-4.6-4.8
	l-1.4,1.3l4.9,5.2c0.5,0.6,0.4,1.5-0.2,2C40,50,39.3,50,38.8,49.5L33.5,44l-1.4,1.3l5.2,5.4c0,0,0,0.1,0.1,0.1
	c0.3,0.3,0.4,0.6,0.4,1c0,0.4-0.2,0.7-0.4,1c-0.6,0.5-1.4,0.5-2,0c-0.2-0.2-0.6-0.3-0.9-0.2c0-0.7-0.3-1.3-0.7-1.9
	c-0.6-0.7-1.5-1.2-2.4-1.2h-0.2c0-0.9-0.3-1.7-0.9-2.4c-0.6-0.6-1.5-0.9-2.4-0.9l0,0c0-0.9-0.3-1.7-0.9-2.3
	c-0.6-0.6-1.5-0.9-2.4-0.9c0-0.1,0-0.1,0-0.2c0-0.9-0.5-1.8-1.2-2.4c-0.2-0.2-0.5-0.3-0.8-0.5c1.7,0.1,3.3-0.6,4.4-1.7l3.1-3.3
	c1.8,1.5,4.2,2.2,6.5,1.9l5.1,5.2l2.2,2.2C44.5,44.6,44.5,45.4,44.1,46z M44.1,41.5l-5.5-5.5l0.3-0.1l0.2-0.1L40,35l-1.1-1.5
	L38,34.2c-2.5,1.1-5.4,0.5-7.3-1.5c-0.4-0.4-1-0.4-1.3,0c0,0,0,0,0,0l-3.8,4c-0.8,0.8-2,1.3-3.1,1.2c-0.9,0-1.7-0.3-2.4-0.8
	l10.4-10.4l7.7-1.7l11.3,11.2L44.1,41.5z M50.7,34.9l-10.9-11l2.4-2.4l10.9,10.9L50.7,34.9z M56.4,33l-1.2-1.2L42.9,19.5l-2.2-2.2
	L53.9,4.1h2.4L56.4,33L56.4,33z"/>
<path class="st6" d="M7.3,20.1c-1.6,0-2.8,1.3-2.8,2.8c0,1.6,1.3,2.8,2.8,2.8s2.8-1.3,2.8-2.8C10.2,21.4,8.9,20.1,7.3,20.1z
	 M7.3,23.9c-0.5,0-0.9-0.4-0.9-0.9c0-0.5,0.4-0.9,0.9-0.9s0.9,0.4,0.9,0.9C8.3,23.5,7.9,23.9,7.3,23.9z"/>
<path class="st6" d="M10.2,45.6H8.3c0,3.6,3,6.6,6.6,6.6v-1.9C12.3,50.3,10.2,48.2,10.2,45.6z"/>
<path class="st6" d="M5.5,45.6H3.6c0,6.2,5.1,11.3,11.3,11.3V55C9.7,55,5.5,50.8,5.5,45.6z"/>
<path class="st6" d="M48.8,45.6c0,2.6-2.1,4.7-4.7,4.7v1.9c3.6,0,6.6-3,6.6-6.6L48.8,45.6L48.8,45.6z"/>
<path class="st6" d="M44.1,55v1.9c6.2,0,11.3-5.1,11.3-11.3h-1.9C53.6,50.8,49.3,55,44.1,55z"/>
</svg>
