<?xml version="1.0" encoding="utf-8"?>
<!-- Generator: Adobe Illustrator 23.0.6, SVG Export Plug-In . SVG Version: 6.00 Build 0)  -->
<svg version="1.1" id="Capa_1" xmlns="http://www.w3.org/2000/svg" xmlns:xlink="http://www.w3.org/1999/xlink" x="0px" y="0px"
	 viewBox="0 0 480 488" style="enable-background:new 0 0 480 488;" xml:space="preserve">
<style type="text/css">
	.st0{fill:#FFFFFF;}
</style>
<title>JOBS-OPENED</title>
<g>
	<g>
		<path class="st0" d="M183.8,34.8h45.5c17.2,0,31.6,12.3,34.8,28.5h25.9c-3.5-30.4-29.4-54.2-60.8-54.2h-45.5
			c-31.4,0-57.3,23.7-60.8,54.2H149C152.3,47,166.6,34.8,183.8,34.8z"/>
		<path class="st0" d="M68.2,172.6c36.8,23.8,85.9,36.9,138.4,36.9s101.6-13.1,138.4-36.9c33.1-21.4,52.3-49,54.7-78.2
			c-8.9-11.1-22.5-18.2-37.9-18.2h-71.3h-25.6H148.3h-25.6H51.4c-15.3,0-29,7.1-37.9,18.2C15.9,123.6,35.1,151.2,68.2,172.6z"/>
		<path class="st0" d="M189.1,243.7c0,8,6.5,14.5,14.5,14.5h6c8,0,14.5-6.5,14.5-14.5v-11.6h-35V243.7L189.1,243.7z"/>
		<path class="st0" d="M51.4,323.7h215V291c0-3.9,1.6-7.7,4.4-10.5l49-48.2c2.8-2.7,6.5-4.2,10.3-4.2h80v-96.2
			c-2.2,4.4-4.6,8.8-7.4,13.1c-11,16.9-26.7,31.9-46.6,44.8c-30.9,20-69.6,33-111.5,38v4.3v11.6c0,19.3-15.7,35-35,35h-6
			c-19.3,0-35-15.7-35-35V232v-4.3c-41.9-4.9-80.6-18-111.5-38c-19.9-12.9-35.6-27.9-46.6-44.8c-2.8-4.3-5.3-8.7-7.4-13.1v143.4
			C3,302,24.7,323.7,51.4,323.7z"/>
		<g>
			<path class="st0" d="M341,239.8c-6.9,0-13.6,2.8-18.4,7.7l-35.4,35.7c-4.9,4.9-7.5,11.4-7.5,18.3v22.2v6.4v6.4v117.2
				c0,1.2,0.1,2.5,0.3,3.6c1.7,12.6,12.6,22.3,25.7,22.3H451c14.3,0,26-11.6,26-26V265.8c0-12.6-8.9-23-20.8-25.4
				c-1.7-0.4-3.4-0.5-5.2-0.5h-28.1h-6.4h-6.4L341,239.8L341,239.8z M422.9,265.5H451c0.2,0,0.4,0.2,0.4,0.4v187.9
				c0,0.1,0,0.1,0,0.1c-0.1,0.2-0.2,0.3-0.3,0.3c0,0,0,0-0.1,0H305.6c-0.2,0-0.4-0.2-0.4-0.4V336.5v-6.4v-6.4v-16.9H324
				c11.7,0,21.3-9.5,21.3-21.3v-20h64.8h6.4H422.9L422.9,265.5z"/>
			<path class="st0" d="M387.3,323.7h-55.8c-4.7,0-8.8,2.6-11.1,6.4c-1.1,1.9-1.7,4-1.7,6.4v0.1c0,7.1,5.7,12.8,12.8,12.8h93.6
				c7.1,0,12.8-5.7,12.8-12.8c0-7.1-5.7-12.8-12.8-12.8h-26H387.3z"/>
			<path class="st0" d="M425.1,404.4h-93.6c-7.1,0-12.8,5.7-12.8,12.8c0,7.1,5.7,12.8,12.8,12.8h93.6c7.1,0,12.8-5.7,12.8-12.8
				C438,410.2,432.2,404.4,425.1,404.4z"/>
			<path class="st0" d="M425.1,364.1h-93.6c-7.1,0-12.8,5.7-12.8,12.8c0,7.1,5.7,12.8,12.8,12.8h93.6c7.1,0,12.8-5.7,12.8-12.8
				C438,369.8,432.2,364.1,425.1,364.1z"/>
		</g>
	</g>
</g>
</svg>
