<?xml version="1.0" encoding="utf-8"?>
<!-- Generator: Adobe Illustrator 23.0.6, SVG Export Plug-In . SVG Version: 6.00 Build 0)  -->
<svg version="1.1" id="Layer_1" xmlns="http://www.w3.org/2000/svg" xmlns:xlink="http://www.w3.org/1999/xlink" x="0px" y="0px"
	 viewBox="0 0 511.9 512" style="enable-background:new 0 0 511.9 512;" xml:space="preserve">
<style type="text/css">
	.st0{fill:#FFFFFF;}
</style>
<title>jobs-closed</title>
<g>
	<g>
		<path class="st0" d="M231.6,377.2c0-19.2,3.8-37.9,11.2-55.5c7.2-16.9,17.4-32.2,30.5-45.3c11.7-11.7,25.2-21.2,40.1-28.2
			c-3.6-12.9-15.5-22.4-29.5-22.4h-34.1c-6,0-11.6,2.9-15.1,7.8l-50.3,71L172.2,279l19.5-41c2.7-5.6-1.4-12.1-7.6-12.1H145
			c-6.2,0-10.3,6.5-7.6,12.1l19.5,41l-12,25.3l-48.6-70.4c-3.5-5-9.2-8-15.2-8H45.3c-16.9,0-30.6,13.7-30.6,30.6v203.6h243.6
			c-6.1-8.5-11.2-17.7-15.4-27.4C235.4,415.1,231.6,396.4,231.6,377.2z"/>
		<path class="st0" d="M164.1,8.9c-54.5,0-98.7,44.3-98.7,98.7s44.3,98.7,98.7,98.7s98.7-44.3,98.7-98.7S218.5,8.9,164.1,8.9z"/>
	</g>
</g>
<path class="st0" d="M369.3,242.9c-21.5,0-41.7,5.2-59.5,14.5c-41.4,21.5-69.6,64.8-69.6,114.6c0,31.5,11.3,60.5,30.2,82.9
	c23.7,28.2,59.3,46.3,99,46.3c71.3,0,129.2-57.8,129.2-129.2S440.6,242.9,369.3,242.9z M431.5,418.4l-15.8,15.8
	c-0.5,0.5-1.2,0.8-1.9,0.8c-0.7,0-1.4-0.3-1.9-0.8l-42.6-42.6l-42.6,42.6c-0.5,0.5-1.2,0.8-1.9,0.8s-1.4-0.3-1.9-0.8l-15.8-15.8
	c-1-1-1-2.7,0-3.7l42.6-42.6l-42.6-42.6c-1-1-1-2.7,0-3.7l15.8-15.8c1-1,2.7-1,3.7,0l42.6,42.6l42.6-42.6c0.5-0.5,1.2-0.8,1.9-0.8
	c0.7,0,1.4,0.3,1.9,0.8l15.8,15.8c1,1,1,2.7,0,3.7L388.8,372l42.6,42.6C432.5,415.7,432.5,417.3,431.5,418.4z"/>
</svg>
