<?xml version="1.0" encoding="utf-8"?>
<!-- Generator: Adobe Illustrator 23.0.6, SVG Export Plug-In . SVG Version: 6.00 Build 0)  -->
<svg version="1.1" id="Layer_1" xmlns="http://www.w3.org/2000/svg" xmlns:xlink="http://www.w3.org/1999/xlink" x="0px" y="0px"
	 viewBox="0 0 496 496" style="enable-background:new 0 0 496 496;" xml:space="preserve">
<style type="text/css">
	.st0{fill:#FFFFFF;}
</style>
<title>jobs-assigned</title>
<g>
	<path class="st0" d="M55.1,445.4c8.6-49.2,26.2-111.9,43.4-133.3c-7.1,19-13.1,42-10.7,62.5c1.6,14.1,17.6,32.6,15.5,46
		c-0.9,5.5-4,11.9-7.1,19.1c-2.8,6.6,2.1,14,9.3,14h146.6c3.8,0,6.9-2,8.7-4.9c-5.8-8.1-10.7-16.9-14.7-26.2
		c-7.1-16.9-10.7-34.8-10.7-53.2c0-18.5,3.6-36.4,10.7-53.2c6.9-16.3,16.7-30.9,29.3-43.5c9.7-9.7,20.6-17.8,32.6-24.1
		c-0.7-1.2-1.4-2.4-2.2-3.6c-17.2-27-40.1-36.3-65.7-44.4c-11.6-3.7-23.9,2.7-28,14.3c-7.1,20.3-17.8,55.7-25.2,80.4
		c-2.4,8.1-13.8,8.1-16.3,0c-7.4-24.7-18.1-60-25.2-80.4c-4-11.6-16.4-17.9-28-14.3c-25.6,8.1-48.5,17.3-65.7,44.4
		C32.6,275.4,25.3,313,17.6,348.5c-6.7,30.9-11.9,62.3-16,93.9c-0.8,6,3.9,11.4,10,11.4h33.6C50.1,453.8,54.3,450.2,55.1,445.4z"/>
	<path class="st0" d="M178.8,3.6c-29.2,0-57.5,16.9-75.7,40.4C82.9,70,85.8,100.9,78,131.3c-2.9,11.3-6.3,22.6-10.4,33.5
		c20.1,8.9,41.4,1.4,55.8-6.2c14.9,12.9,34.2,34.9,55.5,34.9s40.6-22,55.5-34.9c14.4,7.6,35.7,15.1,55.8,6.2
		c-4.1-10.9-7.5-22.2-10.4-33.5c-7.8-30.4-4.9-61.3-25.1-87.3C236.4,20.5,208,3.6,178.8,3.6z"/>
	<path class="st0" d="M372.1,245.7c-20.9,0-40.6,5.2-57.9,14.4c-39.1,20.8-65.8,61.9-65.8,109.3c0,15.4,2.8,30.1,7.9,43.7
		c17.7,46.8,62.8,80,115.8,80c68.3,0,123.7-55.4,123.7-123.7C495.8,301.1,440.4,245.7,372.1,245.7z M442.9,335.9l-89.2,89.2
		l-3.1,3.1c-0.2,0.2-0.4,0.4-0.6,0.6c-2.4,2.2-5.5,3.2-8.6,3.2c-3.3,0-6.7-1.3-9.2-3.8l-30.9-30.9c-5.1-5.1-5.1-13.3,0-18.4
		c5.1-5.1,13.3-5.1,18.4,0l21.7,21.7l7.3-7.3l75.8-75.8c5.1-5.1,13.3-5.1,18.4,0C448,322.6,448,330.9,442.9,335.9z"/>
</g>
</svg>
