<?xml version="1.0" encoding="utf-8"?>
<!-- Generator: Adobe Illustrator 23.0.6, SVG Export Plug-In . SVG Version: 6.00 Build 0)  -->
<svg version="1.1" id="Layer_1" xmlns="http://www.w3.org/2000/svg" xmlns:xlink="http://www.w3.org/1999/xlink" x="0px" y="0px"
	 viewBox="0 0 480 488" style="enable-background:new 0 0 480 488;" xml:space="preserve">
<style type="text/css">
	.st0{fill:#FFFFFF;}
</style>
<title>jobs-posted</title>
<g>
	<g>
		<path class="st0" d="M363.3,90c0-10.9-4.2-21.1-11.9-28.8L313,22.8c-7.6-7.6-18.3-11.9-29-11.9h-2.3v81.4h81.6L363.3,90L363.3,90z
			"/>
	</g>
</g>
<g>
	<g>
		<path class="st0" d="M258.8,290.8c2.6-7.9,7.1-15.2,13-21.2l91.8-91.5v-58.7h-95.3c-7.5,0-13.1-6.1-13.1-13.6V10.9H51.8
			c-22.4,0-40.7,18.3-40.7,40.7v381.6c0,22.4,18.3,40.7,40.7,40.7h270.8c22.4,0,41-18.3,41-40.7V331.9l-14.9,14.5
			c-6,6-13.1,10.3-21.1,13l-43.1,14.4l-6.6,0.4c-10.9,0-21.1-5.3-27.5-14.1c-6.3-8.8-8.1-20.2-4.6-30.5L258.8,290.8z M78.9,255
			h135.2c7.5,0,13.6,6.1,13.6,13.6s-6.1,13.6-13.6,13.6H78.9c-7.5,0-13.6-6.1-13.6-13.6C65.3,261.1,71.4,255,78.9,255z M65.3,214.4
			c0-7.5,6.1-13.6,13.6-13.6h135.2c7.5,0,13.6,6.1,13.6,13.6s-6.1,13.6-13.6,13.6H78.9C71.4,227.9,65.3,221.9,65.3,214.4z
			 M65.3,322.9c0-7.5,6.1-13.6,13.6-13.6h135.2c7.5,0,13.6,6.1,13.6,13.6c0,7.5-6.1,13.6-13.6,13.6H78.9
			C71.4,336.4,65.3,330.4,65.3,322.9z M268.3,390.7c7.5,0,13.6,6.1,13.6,13.6s-6.1,13.6-13.6,13.6h-81.4c-7.5,0-13.6-6.1-13.6-13.6
			c0-7.5,6.1-13.6,13.6-13.6H268.3z M78.9,173.7c-7.5,0-13.6-6.1-13.6-13.6c0-7.5,6.1-13.6,13.6-13.6h189.4
			c7.5,0,13.6,6.1,13.6,13.6c0,7.5-6.1,13.6-13.6,13.6H78.9z"/>
	</g>
</g>
<g>
	<g>
		<path class="st0" d="M283.3,302.8l-11.8,35.4c-1.8,5.3,3.3,10.3,8.6,8.6l35.4-11.8L283.3,302.8z"/>
	</g>
</g>
<g>
	<g>
		<path class="st0" d="M388.7,191.1l-89.3,89.3l38.5,38.5c20.2-20.2,59.5-59.5,89.3-89.3L388.7,191.1z"/>
	</g>
</g>
<g>
	<g>
		<path class="st0" d="M466,152.2c-4.8-4.8-11.8-7.5-19.2-7.5c-7.4,0-14.5,2.7-19.3,7.5L407.8,172l38.5,38.5
			c10.8-10.8,18.2-18.2,19.7-19.7C476.7,180.1,476.7,162.9,466,152.2z"/>
	</g>
</g>
<g>
	<g>
		<g>
			<path class="st0" d="M466.1,190.8C466.1,190.8,466.1,190.8,466.1,190.8C466.1,190.7,466.1,190.7,466.1,190.8
				C466.1,190.7,466.1,190.7,466.1,190.8z"/>
			<path class="st0" d="M466.1,190.7c0,0,0.1-0.1,0.1-0.1C466.2,190.6,466.2,190.6,466.1,190.7z"/>
			<path class="st0" d="M466.3,190.6C466.3,190.5,466.3,190.5,466.3,190.6L466.3,190.6z"/>
		</g>
	</g>
</g>
</svg>
