<svg xmlns="http://www.w3.org/2000/svg" viewBox="0 0 96 96"><style>.st0{display:none}.st1{display:inline}.st3{fill:#fff}.st4{fill:none;stroke:#044d80;stroke-width:2;stroke-linecap:round;stroke-linejoin:round;stroke-miterlimit:10}.st7{fill:#044d80}</style><g id="Layer_1" class="st0"><g class="st1"><path fill="#68c5ed" d="M12.46 88L35.93 8l56.53 53.87z" opacity=".6"/><path d="M77.12 29.57c0-1.84-1.39-3.33-3.1-3.33H15.03c-1.71 0-3.1 1.49-3.1 3.33v39.04h65.19V29.57zM3.54 69.07v4.57c0 2.26 1.41 4.11 3.13 4.11h75.71c1.72 0 3.13-1.85 3.13-4.11v-4.57H3.54z" class="st3"/><path d="M11.93 68.61V29.57c0-1.84 1.39-3.33 3.1-3.33h58.99c1.71 0 3.1 1.49 3.1 3.33v39.04M39.31 73.41h10.43M3.54 69.07v4.57c0 2.26 1.41 4.11 3.13 4.11h75.71c1.72 0 3.13-1.85 3.13-4.11v-4.57H3.54z" class="st4"/><path d="M16.91 32.51h55.24v30.64H16.91z" class="st4"/><g id="XMLID_198_"><path d="M50.38 38.92l14.44 12.51" class="st4"/></g><g id="XMLID_197_"><path d="M57.33 38.46l8.2 7.11" class="st4"/></g><g id="XMLID_196_"><path d="M64.12 37.93l2.28 1.98" class="st4"/></g></g></g><g id="Layer_2"><path fill="#ff9d28" d="M8 37.63L70.62 88 88 8z" opacity=".6"/><path d="M42.93 62.22h33.15c3.93 0 7.15-3.22 7.15-7.15V31.43c0-3.93-3.22-7.15-7.15-7.15H28.83c-3.93 0-7.15 3.22-7.15 7.15v23.63c0 3.93 3.22 7.15 7.15 7.15h6.97v6.77l7.13-6.76z" class="st3"/><path d="M42.93 62.22h33.15c3.93 0 7.15-3.22 7.15-7.15V31.43c0-3.93-3.22-7.15-7.15-7.15H28.83c-3.93 0-7.15 3.22-7.15 7.15v23.63c0 3.93 3.22 7.15 7.15 7.15h6.97v6.77l7.13-6.76zM53.25 39.64h22.71M53.25 46.63h22.71" class="st4"/><path d="M37.27 34.42l2.57 5.21 5.75.83-4.16 4.06.98 5.73-5.14-2.71-5.14 2.71.98-5.73-4.16-4.06 5.75-.83z" class="st4"/></g><g id="Layer_3" class="st0"><path fill="#e22e2e" d="M9.56 88L25.12 8l64.44 50.94z" opacity=".6"/><g class="st1"><path d="M43.11 41.27c.6-17.87-8.83-16.43-28.9-16.09v6.68h-7.2v43.55c17.36.59 27.83-1.53 32.89 2.32l3.21 5.66c-.56-2.66-1.62-4.45-3.21-5.66l3.21 5.73v0l.03.05c-.01-.03-.01-.05-.02-.08 2.33-11.22 13.25-7.28 36.11-8.06V31.86c-16.82 0-31.11-2.71-36.12 9.41z" class="st3"/></g><g class="st1"><path d="M43.09 84.46h-.1c-.51-.05-.9-.48-.9-1v-42.2c0-.13.03-.26.08-.38 4.48-10.82 15.94-10.51 29.22-10.16 2.53.07 5.15.14 7.82.14.55 0 1 .45 1 1v43.51c0 .54-.43.98-.97 1-5.7.2-10.6.1-14.93.01-12.82-.25-18.68-.37-20.25 7.29-.08.46-.5.79-.97.79zm1-42.99v37.01c3.31-4.43 9.97-4.3 20.27-4.1 4.05.08 8.61.17 13.85.02V32.86c-2.35-.01-4.65-.07-6.88-.13-12.97-.35-23.23-.62-27.24 8.74z" class="st7"/></g><g class="st1"><path d="M43.12 76.34c-.46 0-.88-.33-.98-.8-1.57-7.65-7.42-7.54-20.25-7.29-2.3.05-4.92.1-7.7.1-.27 0-.52-.11-.71-.29-.19-.19-.29-.44-.29-.71V25.17c0-.55.44-.99.98-1 1.3-.02 2.55-.05 3.76-.07 11.15-.24 18.53-.39 22.67 3.8 2.6 2.63 3.71 6.89 3.49 13.41-.02.55-.49.99-1.03.97-.55-.02-.98-.48-.97-1.03.2-5.92-.73-9.72-2.91-11.93-3.53-3.58-10.56-3.43-21.2-3.2-.9.02-1.83.04-2.78.06v40.2c2.39-.01 4.64-.06 6.66-.1 13.11-.26 20.34-.4 22.24 8.88.11.54-.24 1.07-.78 1.18h-.2z" class="st7"/></g><g class="st1"><path d="M43.12 84.5c-.46 0-.88-.33-.98-.8-1.57-7.65-7.42-7.53-20.25-7.29-4.32.09-9.22.18-14.93-.01-.53-.01-.96-.45-.96-.99V31.86c0-.55.45-1 1-1h7.19c.55 0 1 .45 1 1s-.45 1-1 1H8v41.58c5.24.15 9.8.06 13.85-.02 13.12-.26 20.34-.4 22.25 8.88.11.54-.24 1.07-.78 1.18-.07.02-.14.02-.2.02z" class="st7"/></g><g class="st1"><path d="M30.44 44.55H20.37c-.55 0-1-.45-1-1V32.33c0-.55.45-1 1-1h10.06c.55 0 1 .45 1 1v11.22c.01.55-.44 1-.99 1zm-9.07-2h8.06v-9.22h-8.06v9.22z" class="st7"/></g><g class="st1"><path d="M66.74 42.17H56.68c-.55 0-1-.45-1-1s.45-1 1-1h10.06c.55 0 1 .45 1 1s-.45 1-1 1z" class="st7"/></g><g class="st1"><path d="M66.74 49.88H56.68c-.55 0-1-.45-1-1s.45-1 1-1h10.06c.55 0 1 .45 1 1s-.45 1-1 1z" class="st7"/></g><g class="st1"><path d="M66.74 57.25H56.68c-.55 0-1-.45-1-1s.45-1 1-1h10.06c.55 0 1 .45 1 1s-.45 1-1 1z" class="st7"/></g><g class="st1"><path d="M66.74 64.62H56.68c-.55 0-1-.45-1-1s.45-1 1-1h10.06c.55 0 1 .45 1 1s-.45 1-1 1z" class="st7"/></g><g class="st1"><path d="M30.74 52.17H20.68c-.55 0-1-.45-1-1s.45-1 1-1h10.06c.55 0 1 .45 1 1s-.45 1-1 1z" class="st7"/></g><g class="st1"><path d="M30.74 59.88H20.68c-.55 0-1-.45-1-1s.45-1 1-1h10.06c.55 0 1 .45 1 1s-.45 1-1 1z" class="st7"/></g></g></svg>